<svg width="127" height="39" viewBox="0 0 127 39" fill="none" xmlns="http://www.w3.org/2000/svg">
<path d="M126.604 37.3631H19.4746H-11L31.7476 19.0577L48.285 24.0501L80.7358 26.5462H104.97L126.604 37.3631Z" fill="#FFF8F2"/>
<path d="M39.6526 21.6271C39.6526 31.0476 64.5705 37.3323 55.1499 37.3323C45.7294 37.3323 1.58538 41.3761 -2.05493 35.7722C6.68181 24.3189 32.4162 2.89325 41.8368 2.89325C51.2574 2.89325 39.6526 12.2067 39.6526 21.6271Z" fill="#FFF8F2"/>
<ellipse cx="48.0776" cy="17.4976" rx="16.9534" ry="16.9533" fill="#FFF8F2"/>
<ellipse cx="57.5406" cy="25.9223" rx="11.441" ry="11.4409" fill="#FFF8F2"/>
<ellipse cx="80.2156" cy="22.1778" rx="15.1853" ry="15.1851" fill="#FFF8F2"/>
<ellipse cx="96.4398" cy="24.8817" rx="12.4811" ry="12.4809" fill="#FFF8F2"/>
<ellipse cx="104.032" cy="29.7704" rx="7.59265" ry="7.59257" fill="#FFF8F2"/>
</svg>
