<svg width="64" height="42" viewBox="0 0 64 42" fill="none" xmlns="http://www.w3.org/2000/svg">
<path d="M8.2388 30.147C8.14853 30.147 8.07419 30.1628 8.02108 30.1996C7.96797 30.2365 7.90424 30.2522 7.82991 30.2522H7.7768C7.7768 30.2522 7.70247 30.2207 7.61225 30.1576C7.52197 30.0944 7.46886 30.0629 7.44764 30.0629C7.39453 30.0261 7.25647 29.9577 7.04408 29.8472C6.83169 29.7368 6.69364 29.6684 6.64054 29.6315C6.67771 29.5421 6.65647 29.4422 6.57151 29.3212C6.48656 29.2002 6.43877 29.1371 6.42284 29.1213C6.17328 28.8898 5.87593 28.6058 5.5308 28.2796C5.18566 27.9535 4.84053 27.6063 4.49009 27.2486C4.13964 26.8909 3.81575 26.5279 3.5184 26.165C3.22105 25.802 2.99273 25.4653 2.82813 25.1602C2.8122 25.1444 2.74848 25.0077 2.63697 24.7604C2.52547 24.5132 2.41396 24.2344 2.29715 23.9293C2.18033 23.6242 2.06883 23.3401 1.95732 23.0719C1.84582 22.8036 1.78741 22.6353 1.76617 22.5617C1.47945 21.5096 1.21927 20.3839 0.980328 19.1897C0.746698 17.9957 0.629883 16.8542 0.629883 15.7653C0.629883 15.6758 0.640502 15.518 0.656432 15.2813C0.672361 15.0446 0.69891 14.8026 0.725459 14.5449C0.752007 14.2871 0.773247 14.0609 0.794485 13.861C0.815725 13.6611 0.821035 13.5559 0.821035 13.5401C0.836964 13.1666 0.895371 12.7879 0.985637 12.4039C1.0759 12.0199 1.11838 11.6411 1.11838 11.2677L1.03874 11.0783C1.03874 11.0046 1.06528 10.9731 1.11838 10.9731C1.20865 10.5996 1.33077 10.1946 1.48475 9.75795C1.63874 9.32134 1.80334 8.87949 1.98387 8.43233C2.16441 7.98524 2.35556 7.55387 2.55202 7.13305C2.74848 6.71223 2.95025 6.33346 3.14672 5.9968C3.18388 5.94419 3.23167 5.86003 3.29539 5.7443C3.3591 5.62857 3.42282 5.51811 3.48654 5.40764C3.55026 5.29717 3.60866 5.20248 3.66176 5.11306C3.71486 5.02363 3.75203 4.97103 3.76796 4.94999C3.80512 4.91316 3.93256 4.77113 4.14495 4.5239C4.35734 4.27667 4.59628 4.00312 4.84584 3.70854C5.0954 3.41396 5.33965 3.13516 5.57328 2.87741C5.8069 2.61965 5.97151 2.45132 6.06178 2.38294C6.0777 2.36715 6.15204 2.28299 6.27947 2.14096C6.40691 1.99893 6.54497 1.85164 6.69895 1.69909L7.12903 1.273C7.26181 1.1415 7.35203 1.06259 7.38392 1.04681C7.52725 0.957386 7.6653 0.89426 7.80336 0.857439C7.94141 0.820611 8.07947 0.778529 8.22286 0.725925C8.32902 0.689104 8.42463 0.625981 8.50424 0.536555C8.58391 0.44713 8.69541 0.405047 8.84407 0.405047L8.89719 0.431348H8.9503L9.14147 0.536555C9.30608 0.536555 9.42285 0.520775 9.49191 0.483952C9.5609 0.447129 9.62463 0.399786 9.68301 0.336662C9.74146 0.273538 9.79985 0.210414 9.87418 0.147289C9.94851 0.0841659 10.0547 0.0368224 10.1981 0H10.3043C10.3043 0 10.3467 0.0263017 10.384 0.0263017C10.4211 0.0263017 10.4583 0.0368224 10.4901 0.0526035L10.5963 0.105207V0.615461C10.83 0.668067 10.968 0.752231 11.0158 0.867954C11.0636 0.983685 11.1273 1.1415 11.2176 1.33613L11.4353 1.76222V1.84112C11.3291 2.19883 11.1963 2.57757 11.0423 2.97736C10.8883 3.37714 10.6707 3.72433 10.3786 4.00838C10.3627 4.02417 10.299 4.07677 10.1875 4.15567C10.076 4.23458 10.007 4.28718 9.96979 4.30296C9.8954 4.37661 9.70957 4.58702 9.40163 4.94473C9.09363 5.30243 8.76447 5.6917 8.40342 6.12304C8.0423 6.5544 7.7078 6.94364 7.40514 7.30136C7.10247 7.65909 6.91665 7.87471 6.86355 7.94311C6.84762 8.03254 6.78922 8.16934 6.68833 8.35869C6.58744 8.54803 6.47594 8.74269 6.3485 8.94782C6.22107 9.15302 6.10425 9.34237 5.99806 9.52123C5.89187 9.70009 5.81753 9.83159 5.78035 9.92102C5.74319 9.97363 5.70602 10.0473 5.67416 10.1367C5.64231 10.2261 5.59983 10.326 5.55204 10.4313C5.50425 10.5365 5.46708 10.6312 5.42991 10.71C5.39275 10.789 5.37681 10.8416 5.37681 10.8573C5.36089 10.8731 5.35557 10.9257 5.36089 11.0046C5.3662 11.0836 5.37681 11.1362 5.37681 11.152C5.36089 11.1888 5.32372 11.2256 5.27062 11.2729C5.21753 11.3203 5.18035 11.3466 5.16443 11.3676C5.07416 11.6885 4.99451 12.0462 4.92018 12.4407C4.84584 12.8352 4.78743 13.235 4.72902 13.6454C4.67062 14.0556 4.62814 14.4607 4.59628 14.8605C4.56442 15.2602 4.54319 15.6338 4.54319 15.9704C4.54319 16.486 4.5538 17.012 4.56973 17.538C4.58566 18.064 4.64938 18.5848 4.76088 19.1056C4.77681 19.1213 4.79805 19.1687 4.81398 19.2371C4.82991 19.3055 4.85115 19.3634 4.86708 19.4002C4.86708 19.416 4.883 19.4528 4.92018 19.5054C4.95734 19.5579 4.97327 19.5948 4.97327 19.6105V20.0103C4.97327 20.0103 4.9892 20.063 5.01575 20.1156C5.0423 20.1682 5.06354 20.205 5.08478 20.2208C5.08478 20.2366 5.12195 20.3575 5.19098 20.5837C5.26 20.8099 5.34496 21.0466 5.43522 21.3044C5.52549 21.5622 5.65292 21.9146 5.81222 22.3618C5.84938 22.488 5.90248 22.6668 5.97682 22.8983C6.05115 23.1298 6.09364 23.2665 6.10956 23.2981C6.12549 23.3507 6.19452 23.4559 6.31134 23.6084C6.42815 23.761 6.55027 23.924 6.67771 24.1029C6.80514 24.2818 6.92727 24.4448 7.04408 24.5974C7.16092 24.7499 7.23525 24.8604 7.27242 24.9341C7.2883 24.9709 7.33614 25.0393 7.40514 25.1339C7.4742 25.2286 7.53258 25.297 7.56975 25.3338C7.64408 25.4233 7.75558 25.5442 7.90958 25.6968C8.06358 25.8493 8.22286 26.0072 8.39808 26.165C8.5733 26.3228 8.72196 26.4754 8.85475 26.6173C8.98746 26.7594 9.08302 26.8488 9.13613 26.8856C9.22641 26.9751 9.39102 27.1013 9.63523 27.2591C9.87951 27.4169 10.1237 27.5958 10.3786 27.7799C10.6335 27.964 10.8565 28.1586 11.0529 28.3533C11.2494 28.5479 11.3503 28.7267 11.3503 28.8898C11.3503 28.9266 11.3344 28.995 11.3078 29.1055C11.2813 29.216 11.2388 29.3212 11.1857 29.4264C11.1326 29.5316 11.0742 29.6368 11.0105 29.7368C10.9468 29.8367 10.8777 29.8945 10.8087 29.9103C10.7928 29.9103 10.7025 29.8945 10.5379 29.8577C10.3733 29.8209 10.2777 29.8156 10.2406 29.8314C10.2246 29.8314 10.1343 29.8788 9.98568 29.9787C9.83701 30.0787 9.74673 30.1365 9.73085 30.1523C9.83701 30.3311 9.87418 30.4469 9.83701 30.4995C9.79985 30.5521 9.73085 30.5732 9.63523 30.5521C9.53968 30.531 9.43346 30.5048 9.32196 30.4574C9.21046 30.4101 9.14147 30.3733 9.1043 30.3364C9.08835 30.3522 9.05119 30.3785 8.99807 30.4048C8.94496 30.4311 8.90779 30.4469 8.89191 30.4469C8.80163 30.5732 8.73257 30.6258 8.69013 30.61C8.64763 30.5942 8.59986 30.5468 8.55735 30.4785C8.51491 30.4101 8.4618 30.3311 8.40869 30.2522C8.35558 30.1734 8.29185 30.1312 8.21752 30.1312L8.2388 30.147Z" fill="#36D0B8" fill-opacity="0.48"/>
<path d="M24.2 10.8212C24.1841 10.6949 24.1682 10.6002 24.1576 10.5266C24.147 10.453 24.1364 10.3583 24.1151 10.232C24.1523 10.2162 24.2531 10.1584 24.4284 10.069C24.6036 9.97953 24.7045 9.92692 24.7416 9.90588H24.8479C24.901 9.92167 24.9912 9.94795 25.1186 9.97422C25.2461 10.0006 25.3788 10.0321 25.5222 10.069C25.6655 10.1058 25.8036 10.1373 25.9257 10.1636C26.0479 10.1899 26.1434 10.2109 26.1965 10.232C26.2337 10.2478 26.2868 10.2689 26.3611 10.2846C26.4355 10.3004 26.478 10.3215 26.4938 10.3372C26.5098 10.3372 26.547 10.3688 26.6001 10.4319C26.6532 10.495 26.6904 10.5266 26.7062 10.5266C26.7222 10.5424 26.7912 10.5792 26.908 10.6318C27.0248 10.6844 27.0939 10.7212 27.1098 10.737C27.1257 10.7528 27.1257 10.8106 27.1098 10.9C27.0939 10.9895 27.0939 11.0316 27.1098 11.0316C27.1257 11.0684 27.1841 11.0947 27.2744 11.1105C27.3647 11.1263 27.4178 11.1368 27.439 11.1368V11.242C27.5293 11.384 27.6089 11.4945 27.6833 11.5787C27.7576 11.6628 27.816 11.7418 27.8585 11.8206C27.901 11.8995 27.9381 11.989 27.9647 12.0889C27.9912 12.1888 28.0072 12.3361 28.0072 12.5308C28.0072 12.778 28.0072 12.9937 27.9912 13.1725C27.9753 13.3514 27.9487 13.5723 27.8957 13.8406L27.5717 22.536C27.662 23.3566 27.6992 24.2193 27.678 25.1188C27.6567 26.0183 27.6514 26.8705 27.6514 27.6753C27.6514 27.7121 27.6514 27.8068 27.6355 27.9699C27.6196 28.1329 27.6196 28.2382 27.6196 28.2908C27.5824 28.3276 27.5133 28.4223 27.4178 28.5854C27.3222 28.7484 27.2532 28.8536 27.216 28.9063C27.216 28.922 27.1629 28.9536 27.0514 29.0009C26.9399 29.0483 26.8284 29.0904 26.701 29.1324C26.5735 29.1745 26.4514 29.2166 26.324 29.2534C26.1965 29.2903 26.1169 29.306 26.0797 29.306H25.0549C24.9806 29.164 24.9381 29.0588 24.9222 28.9957C24.9062 28.9325 24.8903 28.8957 24.8797 28.8905C24.8691 28.8852 24.8531 28.901 24.8266 28.9431C24.8001 28.9851 24.7522 29.0377 24.6779 29.0904C24.4071 28.8957 24.2054 28.638 24.0726 28.3276C23.9399 28.0172 23.8496 27.7069 23.8178 27.4018C23.7275 27.0967 23.6744 26.7811 23.6531 26.4497C23.6319 26.1183 23.6425 25.7763 23.6797 25.4186L23.5151 25.6343C23.462 25.7079 23.4248 25.75 23.4089 25.7658V25.9815L22.708 26.7863C22.7451 26.8915 22.708 26.9915 22.6124 27.0809C22.5169 27.1703 22.3894 27.2492 22.246 27.3229C22.1027 27.3965 21.954 27.4544 21.8 27.5122C21.646 27.5701 21.5345 27.6017 21.4602 27.6175C21.0992 27.7227 20.7753 27.8068 20.4886 27.8594C20.2018 27.912 19.9044 28.0383 19.5965 28.2329H17.7327C17.7327 28.2329 17.6531 28.2171 17.5416 28.1909C17.4301 28.1645 17.3505 28.1435 17.2974 28.1225C17.2814 28.1225 17.223 28.1067 17.1327 28.0699C17.0425 28.033 16.9416 28.0015 16.8354 27.9752C16.7292 27.9488 16.6283 27.9173 16.5381 27.8804C16.4478 27.8436 16.3947 27.8279 16.3735 27.8279C15.6885 27.6122 15.1044 27.2861 14.6159 26.8389C14.1274 26.3918 13.7345 25.871 13.4265 25.2713C13.1185 24.6717 12.8903 24.0299 12.7363 23.346C12.5823 22.6622 12.5079 21.9784 12.5079 21.2998V20.9789C12.5079 20.9789 12.5239 20.9263 12.5504 20.8737C12.577 20.8211 12.5982 20.7842 12.6194 20.7685C12.6194 20.7527 12.6354 20.6949 12.6619 20.6054C12.6885 20.516 12.7097 20.416 12.7309 20.3108C12.7522 20.2056 12.7681 20.1057 12.784 20.0162C12.8 19.9268 12.8106 19.8742 12.8106 19.8532C12.938 19.3903 13.0973 18.8958 13.2991 18.3698C13.5009 17.8437 13.7186 17.3177 13.9628 16.7917C14.2071 16.2656 14.4725 15.7712 14.7593 15.3083C15.046 14.8453 15.3434 14.4351 15.6513 14.0773C15.7044 14.0247 15.8 13.9353 15.9327 13.809C16.0655 13.6828 16.1557 13.6039 16.1876 13.5671C16.2035 13.5513 16.2779 13.5145 16.4053 13.4619C16.5327 13.4092 16.6655 13.3514 16.8089 13.2883C16.9522 13.2251 17.085 13.1673 17.2018 13.1147C17.3186 13.0621 17.3929 13.0252 17.4301 13.0095C17.446 12.9937 17.4673 12.9674 17.4832 12.9411C17.4991 12.9148 17.5203 12.899 17.5363 12.899C17.6425 12.7043 17.7806 12.5624 17.9398 12.4729C17.977 12.4729 18.062 12.4466 18.1947 12.394C18.3275 12.3414 18.4177 12.3046 18.4496 12.2888L18.6673 12.0731C18.7045 12.0574 18.8 12.01 18.9487 11.9416C19.1027 11.868 19.2142 11.8154 19.2885 11.7786L19.3416 11.7522L19.3947 11.7786L19.4743 11.8575C19.5646 11.8575 19.6389 11.8311 19.6921 11.7786V11.8575C19.7452 11.7154 19.8354 11.6102 19.9628 11.5366C20.0903 11.4629 20.2231 11.4103 20.3664 11.3735C20.5098 11.3367 20.6638 11.3156 20.8231 11.3051C20.9823 11.2946 21.131 11.2736 21.2532 11.2367C21.269 11.2367 21.3328 11.221 21.4443 11.1947C21.5558 11.1683 21.6248 11.1526 21.662 11.1526C21.6779 11.1526 21.7204 11.1526 21.7841 11.1368C21.8478 11.121 21.8956 11.121 21.9328 11.121C22.023 11.121 22.108 11.121 22.1877 11.1368C22.2673 11.1526 22.3363 11.1947 22.3894 11.284H21.9593C22.0337 11.3209 22.1717 11.3682 22.3788 11.4314C22.5859 11.4945 22.7239 11.5366 22.7983 11.5523L23.016 11.4471C23.016 11.4471 23.0266 11.4103 23.0425 11.3945L23.0957 11.342H23.2018C23.239 11.3788 23.308 11.4208 23.4036 11.4735C23.4991 11.5261 23.5682 11.5734 23.6054 11.605C23.7115 11.6944 23.7965 11.7364 23.8603 11.726L24.1416 11.6838V11.0421C24.1416 10.9527 24.1523 10.8738 24.1682 10.8001L24.2 10.8212ZM21.0938 24.2561C21.508 23.9878 21.9434 23.6827 22.4054 23.3302C22.8673 22.9778 23.3293 22.578 23.7965 22.1152C23.7965 21.8837 23.8124 21.4681 23.839 20.8684C23.8655 20.2687 23.8974 19.5954 23.9346 18.8484C23.9718 18.1015 24.0089 17.3229 24.0408 16.5181C24.0726 15.7133 24.1045 14.9821 24.1204 14.3246C23.977 14.414 23.8071 14.4561 23.6213 14.4561C23.4354 14.4561 23.2921 14.4719 23.2018 14.5087C22.862 14.6507 22.5381 14.7559 22.2302 14.8295C21.9222 14.9032 21.5983 14.9979 21.2584 15.1241C20.7912 15.303 20.3239 15.566 19.8673 15.9132C19.4107 16.2604 18.9752 16.6602 18.5717 17.1178C18.1682 17.5754 17.8018 18.0489 17.4779 18.5486C17.154 19.0483 16.8938 19.5376 16.692 20.0215C16.6549 20.1109 16.6018 20.2635 16.5275 20.4739C16.4531 20.6843 16.4106 20.8106 16.3947 20.8474V21.0631L16.3416 21.1157L16.2885 21.1683C16.1982 21.2945 16.1557 21.3892 16.1664 21.4629C16.177 21.5365 16.1823 21.668 16.1823 21.8627C16.1823 22.1467 16.1823 22.4202 16.1982 22.678C16.2142 22.9358 16.2407 23.1725 16.3044 23.3882C16.3681 23.6038 16.469 23.7932 16.6177 23.9615C16.7663 24.1298 16.9788 24.2614 17.2655 24.3507H17.669C17.7062 24.3665 17.7381 24.3981 17.7646 24.4455C17.7912 24.4928 17.7965 24.5296 17.7806 24.5664H18.4018L18.4549 24.5138L18.508 24.4613L18.5611 24.4349L18.6142 24.4613C18.6142 24.4613 18.6779 24.5033 18.7469 24.5402C18.816 24.577 18.8743 24.6138 18.9115 24.6454L19.0177 24.7505C19.0177 24.7505 19.0708 24.7348 19.1239 24.698C19.177 24.6612 19.2142 24.6454 19.2301 24.6454C19.2461 24.6454 19.3204 24.6454 19.4478 24.6296C19.5752 24.6138 19.7027 24.6138 19.8407 24.6033C19.9788 24.5928 20.1062 24.5875 20.2337 24.577C20.3611 24.5664 20.4407 24.5612 20.4779 24.5612C20.515 24.5454 20.6107 24.4928 20.7593 24.4139C20.908 24.335 21.0248 24.2771 21.0992 24.2403L21.0938 24.2561Z" fill="#36D0B8" fill-opacity="0.48"/>
<path d="M30.6562 27.7645C30.6562 27.7645 30.5713 27.7855 30.4545 27.8329C30.3377 27.8803 30.2686 27.8908 30.2528 27.875C30.0562 27.8593 29.8916 27.8013 29.7643 27.7119C29.6368 27.6225 29.5412 27.5226 29.4669 27.4015C29.3925 27.2806 29.3395 27.1543 29.3023 27.0018C29.2651 26.8492 29.2226 26.702 29.1695 26.5599C29.1536 26.5441 29.1111 26.4758 29.0474 26.36C28.9837 26.2443 28.9518 26.1759 28.9518 26.1601V26.0549C28.9518 25.9497 28.9412 25.8445 28.9253 25.7445C28.9094 25.6446 28.9412 25.571 29.0315 25.5184C29.0315 25.5026 29.0315 25.4131 29.0155 25.2659C28.9996 25.1186 28.9996 24.9555 28.9996 24.7819C28.9996 24.6083 28.9997 24.4558 28.9837 24.3138C28.9678 24.1717 28.9678 24.0928 28.9678 24.0717C28.9678 23.9823 28.9678 23.8614 28.9518 23.7088C28.9359 23.5563 28.9359 23.4721 28.9359 23.4563C28.9359 23.3301 28.9359 23.0197 28.92 22.52C28.904 22.0203 28.8988 21.4784 28.8775 20.8998C28.8563 20.3211 28.8457 19.7846 28.835 19.2954C28.8244 18.8062 28.8191 18.4958 28.8191 18.3696V13.4722C28.8191 13.3827 28.8191 13.2249 28.835 13.004C28.851 12.7831 28.851 12.5463 28.8616 12.2938C28.8722 12.0413 28.8828 11.8046 28.904 11.5837C28.9253 11.3628 28.9306 11.2049 28.9306 11.1155C29.0049 11.0261 29.0368 10.8841 29.0262 10.6894C29.0155 10.4948 29.0686 10.3949 29.1749 10.3949H29.2279C29.3023 10.3949 29.3341 10.4317 29.3341 10.5001C29.4775 10.4107 29.5571 10.2897 29.5784 10.1371C29.5996 9.98454 29.6846 9.9109 29.8492 9.9109V10.4738C29.9766 10.4738 30.12 10.4369 30.2793 10.3685C30.4386 10.3002 30.5023 10.174 30.4704 9.99509C30.4704 9.95827 30.4386 9.92145 30.3749 9.87408C30.3111 9.82677 30.2686 9.80044 30.2528 9.7794L30.2262 9.72679C30.2634 9.72679 30.3589 9.72679 30.5076 9.711C30.6562 9.69521 30.7571 9.68997 30.789 9.66894C30.805 9.65315 30.8315 9.63212 30.8686 9.61633L30.9749 9.56372H31.0811C31.2456 9.66894 31.3306 9.78465 31.3359 9.9109C31.3412 10.0372 31.3944 10.195 31.4846 10.3949C31.5005 10.4107 31.5271 10.4317 31.5536 10.4475C31.5802 10.4633 31.5961 10.4843 31.5961 10.5001C31.612 10.5001 31.6704 10.5158 31.7607 10.5422C31.851 10.5684 31.9041 10.5895 31.9253 10.6106C31.9412 10.6106 31.9625 10.6526 31.9784 10.7421C31.9944 10.8315 32.0156 10.8841 32.0315 10.9051H32.1111C32.1642 10.9419 32.1961 11.0156 32.2067 11.1313C32.2174 11.2471 32.2174 11.3786 32.2067 11.5206C32.1961 11.6626 32.1908 11.7888 32.1802 11.8941C32.1696 12.0045 32.1802 12.0571 32.2226 12.0571C32.297 12.0571 32.3714 12.0151 32.451 11.9361C32.5306 11.8572 32.6156 11.7678 32.6952 11.6679L32.9395 11.3733C33.0191 11.2733 33.0881 11.1997 33.1412 11.1471C33.1784 11.1103 33.2475 11.063 33.343 10.9998L33.6403 10.8105C33.7412 10.7473 33.8315 10.6894 33.9112 10.6368C33.9908 10.5842 34.0492 10.5474 34.0864 10.5316C34.2297 10.4422 34.3466 10.4107 34.4368 10.4369C34.5271 10.4633 34.6173 10.3896 34.7076 10.2108H37.4899C37.4899 10.2108 37.559 10.2266 37.6386 10.2528C37.7183 10.2791 37.7766 10.3002 37.8138 10.3212C37.92 10.3949 38.0953 10.4896 38.3289 10.6158C38.5625 10.7421 38.7005 10.8105 38.7324 10.8315C38.7855 10.8841 38.9342 11.0156 39.1784 11.2207C39.4227 11.4259 39.6139 11.5889 39.7572 11.7152C39.7944 11.752 39.8634 11.873 39.9749 12.0782C40.0811 12.2834 40.1448 12.4043 40.166 12.4411C40.182 12.4569 40.2139 12.4832 40.2616 12.5201C40.3094 12.5569 40.3306 12.5832 40.3306 12.599C40.3466 12.6358 40.405 12.7357 40.4952 12.9093C40.5855 13.0829 40.6386 13.1828 40.6598 13.2197C40.6811 13.2565 40.7076 13.3301 40.7554 13.4458C40.8032 13.5616 40.851 13.6931 40.9041 13.8351C40.9572 13.9772 41.0103 14.1139 41.0687 14.2507C41.1271 14.3875 41.159 14.4874 41.1749 14.5611C41.1908 14.6137 41.2174 14.6873 41.2546 14.7768C41.2917 14.8662 41.3289 14.9609 41.3607 15.0555C41.3926 15.1502 41.4298 15.2449 41.4563 15.3238C41.4828 15.4027 41.4988 15.4553 41.4988 15.4711C41.5147 15.5605 41.5413 15.6815 41.5785 15.8341C41.6156 15.9866 41.6475 16.1391 41.674 16.2865C41.7006 16.4338 41.7271 16.5757 41.7537 16.702C41.7802 16.8282 41.7961 16.8966 41.7961 16.9177L41.9607 22.4569C41.8704 22.8513 41.8652 23.2564 41.9448 23.672C42.0245 24.0875 42.0298 24.4768 41.9607 24.8345C41.9236 24.9765 41.9023 25.1502 41.8917 25.3553C41.8811 25.5604 41.8758 25.7709 41.8758 25.9866V27.1648C41.8758 27.2543 41.8598 27.3069 41.8227 27.3279L41.7165 27.3805L41.6103 27.4331C41.5731 27.4489 41.5466 27.5068 41.5307 27.5962C41.4935 27.7225 41.4032 27.8066 41.2598 27.8487C41.1165 27.8908 41.0368 27.9854 41.0156 28.1275L40.936 28.0223L40.7182 28.2379C40.7182 28.2379 40.6386 28.2485 40.5271 28.2643C40.4156 28.2801 40.336 28.2906 40.2829 28.2906C40.0864 28.2906 39.9165 28.2906 39.7837 28.2748C39.651 28.259 39.5289 28.2327 39.4174 28.1801C39.3059 28.1275 39.2103 28.0486 39.12 27.9539C39.0297 27.8593 38.9236 27.733 38.7961 27.591C38.7802 27.5383 38.7536 27.4489 38.7165 27.3227C38.6793 27.1964 38.6421 27.0649 38.6103 26.9229C38.5784 26.7808 38.536 26.6441 38.4881 26.5231C38.4404 26.4021 38.4138 26.3074 38.3926 26.2548V24.5137C38.4298 24.4979 38.4351 24.4032 38.4191 24.2348C38.4032 24.0665 38.4032 23.9613 38.4191 23.9245C38.4351 23.8876 38.4351 23.835 38.4032 23.7614C38.3714 23.6877 38.3554 23.6351 38.3342 23.5983H38.2545C38.2545 23.4352 38.2545 23.2985 38.2705 23.1828C38.2864 23.067 38.3129 22.9355 38.366 22.7935C38.3501 22.7777 38.3554 22.7409 38.3926 22.6883C38.4298 22.6357 38.4457 22.5988 38.4457 22.5831C38.4457 22.5673 38.4351 22.4779 38.4191 22.3306C38.4032 22.1833 38.3766 22.0097 38.3501 21.8204C38.3236 21.6309 38.2917 21.3784 38.2545 21.0576L38.3076 21.005L38.3608 20.9524V20.8472C38.3608 20.6841 38.3289 20.5158 38.2651 20.3369C38.2014 20.158 38.159 19.9897 38.143 19.8267V18.6747C38.143 18.5694 38.1324 18.4169 38.1165 18.2223C38.0793 17.954 38.0581 17.6173 38.0475 17.207C38.0368 16.7967 37.989 16.4653 37.8988 16.2181C37.8829 16.1813 37.8404 16.1129 37.7766 16.0024C37.7129 15.8919 37.6811 15.8341 37.6811 15.8131V15.3869C37.6811 15.3869 37.6599 15.3343 37.612 15.2817C37.5643 15.2291 37.5218 15.166 37.4793 15.0924C37.4368 15.0187 37.389 14.9556 37.3466 14.8925C37.3041 14.8294 37.2775 14.7872 37.2775 14.7715C37.0811 14.5032 36.8687 14.3191 36.6404 14.2244C36.412 14.1297 36.12 14.0929 35.7643 14.1297C35.5306 14.1297 35.3129 14.2034 35.1164 14.3559C34.92 14.5085 34.7395 14.6926 34.5749 14.9187C34.4103 15.145 34.2722 15.3764 34.1554 15.6289C34.0386 15.8814 33.943 16.1023 33.874 16.297C33.7997 16.4758 33.7412 16.702 33.6828 16.9808C33.6245 17.2596 33.5766 17.5489 33.5182 17.8488C33.4598 18.1486 33.4121 18.4484 33.3696 18.7325C33.3271 19.0166 33.2846 19.248 33.2475 19.4269C33.2103 19.5531 33.1731 19.7267 33.1253 19.9477C33.0775 20.1686 33.0403 20.3895 33.0032 20.6052C32.966 20.8209 32.9288 21.0155 32.897 21.1943C32.8651 21.3732 32.8439 21.4732 32.8439 21.4889C32.8439 21.5258 32.8439 21.6783 32.828 21.9413C32.812 22.2044 32.812 22.5147 32.8014 22.8513C32.7908 23.188 32.7855 23.5194 32.7855 23.8403V26.8913C32.7696 26.9281 32.7324 26.9807 32.6793 27.0544C32.6262 27.128 32.589 27.1806 32.5731 27.2174C32.5731 27.2332 32.5572 27.2858 32.5306 27.3647C32.5041 27.4437 32.4881 27.4963 32.4881 27.512C32.2917 27.7067 32.0846 27.8382 31.8669 27.9013C31.6492 27.9644 31.3996 27.996 31.1129 27.996H30.8421C30.8421 27.996 30.789 27.9592 30.7359 27.8908C30.6828 27.8224 30.6456 27.7855 30.6298 27.7855L30.6562 27.7645Z" fill="#36D0B8" fill-opacity="0.48"/>
<path d="M54.9973 28.4845C54.9601 28.4477 54.9017 28.374 54.8221 28.2582C54.7424 28.1425 54.684 28.0689 54.6469 28.0321C54.5938 27.9584 54.5247 27.9058 54.4451 27.869C54.3654 27.8322 54.2964 27.769 54.2433 27.6796C54.169 27.5902 54.1212 27.485 54.0946 27.3587C54.0681 27.2325 54.0362 27.1273 53.999 27.0378C53.9831 26.9642 53.9566 26.8537 53.9194 26.7012C53.8823 26.5486 53.8451 26.3908 53.8132 26.233C53.7814 26.0752 53.7389 25.9174 53.707 25.7648C53.6751 25.6123 53.6539 25.5019 53.6539 25.4282L53.4362 25.4019C53.2929 25.7596 53.1123 26.0016 52.8946 26.1384C52.6769 26.2751 52.4168 26.4487 52.1088 26.6591L51.838 26.9274C51.7849 26.9432 51.6628 26.9642 51.4716 26.98C51.2804 26.9958 51.1955 27.0852 51.2167 27.2483C51.1264 27.2483 50.9672 27.2483 50.7282 27.2325C50.4893 27.2167 50.3406 27.2167 50.2716 27.2167C50.2344 27.2167 50.2079 27.2272 50.1919 27.243L50.0858 27.2956C50.0486 27.3324 49.9955 27.3587 49.9212 27.3745C49.8681 27.3903 49.8203 27.4166 49.7884 27.4534H49.3424C49.0822 27.4534 48.8857 27.4429 48.7636 27.4271C48.7477 27.4271 48.6946 27.4166 48.615 27.4008C48.5353 27.385 48.4769 27.385 48.4397 27.4008L48.3601 27.4534H48.2539C48.0574 27.4166 47.8663 27.364 47.6857 27.2903C47.5052 27.2167 47.3141 27.1589 47.1176 27.101C47.1017 27.101 47.0645 27.101 47.0114 27.0852C46.9583 27.0694 46.9211 27.0694 46.9052 27.0694L46.7725 26.9642C46.7353 26.9642 46.7087 26.9852 46.6928 27.0326C46.6769 27.0799 46.6504 27.1062 46.6132 27.1273C46.576 27.1483 46.5123 27.1273 46.422 27.0852C46.3317 27.0431 46.2043 26.9221 46.045 26.7222C45.9919 26.8117 45.9494 26.8485 45.9229 26.8275C45.8964 26.8064 45.8698 26.7749 45.8432 26.7222C45.8167 26.6696 45.7901 26.6065 45.7636 26.5328C45.737 26.4592 45.7052 26.4277 45.668 26.4277C45.5937 26.3382 45.5034 26.2646 45.3973 26.2014C45.291 26.1384 45.2061 26.0647 45.153 25.9753C44.4149 25.5123 43.8787 24.8285 43.5441 23.929C43.2096 23.0295 43.0344 22.0773 43.0184 21.0779C43.0184 20.8464 43.0397 20.5413 43.0875 20.1678C43.1353 19.7943 43.1937 19.4156 43.2787 19.0316C43.3636 18.6476 43.4432 18.2794 43.5335 17.9217C43.6238 17.5639 43.714 17.2799 43.8043 17.0642C43.8202 17.0274 43.8468 16.959 43.8839 16.8643C43.9211 16.7697 43.9583 16.7065 43.9902 16.6907C43.9902 16.675 44.0008 16.6539 44.0167 16.6382L44.0698 16.5856C44.0857 16.5487 44.1123 16.4698 44.1388 16.3435C44.1654 16.2173 44.1813 16.1384 44.1813 16.1016C44.5424 15.3546 45.0361 14.6129 45.668 13.8817C46.2999 13.1505 46.9211 12.5351 47.5317 12.0354C47.5477 12.0196 47.5955 11.988 47.6645 11.9406C47.7389 11.8933 47.7813 11.8617 47.7972 11.8459C47.8344 11.8302 47.93 11.7671 48.0946 11.6566C48.2592 11.5461 48.3654 11.4672 48.4185 11.4146C48.6893 11.22 49.0026 11.0411 49.3636 10.8781C49.7247 10.715 50.0964 10.5835 50.484 10.4783C50.8716 10.373 51.2698 10.2836 51.6734 10.21C52.0769 10.1363 52.4592 10.0837 52.8203 10.0469C52.8946 10.0469 52.9849 10.0627 53.0911 10.089C53.1973 10.1153 53.2823 10.089 53.3353 9.99429C53.3513 10.0101 53.3513 9.99429 53.3353 9.92595C53.3194 9.85755 53.3088 9.82073 53.3088 9.80494C53.3459 9.30518 53.3513 8.73707 53.3353 8.09009C53.3194 7.44303 53.3194 6.86969 53.3353 6.34889C53.3353 6.29629 53.3088 6.16478 53.2557 5.95962C53.2026 5.75447 53.1814 5.6177 53.2026 5.54406C53.2026 5.52827 53.2026 5.43359 53.2185 5.26525C53.2344 5.09693 53.2398 4.91282 53.261 4.71818C53.2822 4.52355 53.2929 4.3447 53.3035 4.18163C53.3141 4.01855 53.3194 3.92387 53.3194 3.88705C53.3194 3.87126 53.33 3.7871 53.3459 3.64507C53.3619 3.50304 53.3831 3.35049 53.399 3.19268C53.415 3.03487 53.4309 2.88232 53.4415 2.75081C53.4521 2.6193 53.4575 2.52987 53.4575 2.49831C53.4734 2.46149 53.4947 2.39311 53.5105 2.28264C53.5265 2.17217 53.5477 2.11431 53.5636 2.09326C53.6008 2.01962 53.6539 1.97754 53.7283 1.96176C53.8026 1.94597 53.8079 1.86181 53.7548 1.71978C53.792 1.71978 53.861 1.70926 53.9566 1.69348C54.0521 1.6777 54.1212 1.66718 54.1584 1.66718C54.1743 1.66718 54.2274 1.6777 54.307 1.69348C54.3866 1.70926 54.4398 1.71978 54.4557 1.71978C54.4929 1.71978 54.5513 1.69348 54.6309 1.64088C54.7106 1.58827 54.7636 1.55145 54.7796 1.53567C54.7955 1.53567 54.8486 1.54619 54.9283 1.56197C55.0079 1.57775 55.061 1.58827 55.0769 1.58827C55.2203 1.57249 55.3584 1.54093 55.4964 1.49359C55.6345 1.44625 55.7725 1.44625 55.9159 1.47781C55.9318 1.47781 55.9477 1.47781 55.9584 1.49359C55.969 1.50937 55.9796 1.50937 56.0009 1.50937H56.0274C56.0274 1.50937 56.0805 1.56723 56.1336 1.63036C56.1867 1.69348 56.2239 1.72504 56.2398 1.72504C56.2557 1.76186 56.3088 1.79868 56.3885 1.83025C56.4681 1.86181 56.5212 1.88285 56.5371 1.88285C56.6646 1.9565 56.707 2.05118 56.6698 2.17743C56.6327 2.30368 56.6327 2.40889 56.6698 2.49831C56.6698 2.51409 56.6858 2.55618 56.7124 2.6193C56.7389 2.68243 56.7601 2.72451 56.7813 2.74029C56.8185 2.86654 56.8292 3.07169 56.8238 3.35575C56.8185 3.63981 56.8557 3.84496 56.946 3.97121C56.946 4.06063 56.946 4.20792 56.9619 4.41308C56.9779 4.61823 56.9778 4.83917 56.9885 5.08114C56.9991 5.32312 57.0044 5.54932 57.015 5.76499C57.0256 5.98067 57.0309 6.13322 57.0309 6.21738C57.0309 6.30155 57.0309 6.49617 57.0468 6.79074C57.0628 7.08531 57.0681 7.422 57.0893 7.79552C57.1106 8.16897 57.1212 8.56876 57.1318 8.98434C57.1425 9.39991 57.1477 9.78915 57.1583 10.1363C57.169 10.4835 57.1743 10.7728 57.1849 11.0043C57.1955 11.2358 57.2008 11.362 57.2008 11.3778V11.7407C57.2008 11.9301 57.2008 12.1353 57.1849 12.3562C57.169 12.5771 57.169 12.7823 57.169 12.9717V13.908C57.169 14.2184 57.1796 14.555 57.1955 14.9128C57.2115 15.2704 57.2274 15.6071 57.238 15.928C57.2486 16.2489 57.254 16.4435 57.254 16.5172V16.7433C57.254 16.8591 57.254 16.9853 57.238 17.1168C57.2221 17.2483 57.2221 17.3746 57.2115 17.4903C57.2008 17.6061 57.1955 17.6797 57.1955 17.7165V19.1894C57.1955 19.242 57.1955 19.3419 57.2115 19.484C57.2274 19.626 57.2274 19.7786 57.238 19.9364C57.2486 20.0942 57.254 20.2467 57.2646 20.3888C57.2752 20.5308 57.2805 20.6307 57.2805 20.6834C57.2964 20.6991 57.323 20.7518 57.3495 20.8306C57.3761 20.9095 57.392 20.9674 57.392 21.0042C57.392 21.02 57.3761 21.0726 57.3495 21.1515C57.323 21.2304 57.307 21.283 57.307 21.2988C57.2911 21.3356 57.2805 21.3725 57.2805 21.404V21.5671C57.2805 21.7301 57.3017 21.8143 57.3495 21.8354C57.3973 21.8564 57.4185 21.909 57.4185 21.9984V22.051L57.3655 22.2141C57.3495 22.2509 57.3389 22.2878 57.3389 22.3351V22.535C57.3548 22.7506 57.3761 23.0295 57.392 23.3767C57.4079 23.7238 57.4292 24.0658 57.4451 24.3919C57.461 24.7181 57.4822 25.0073 57.4982 25.2493C57.5141 25.4913 57.5247 25.6176 57.5247 25.6386C57.5247 25.6596 57.5247 25.707 57.5407 25.7859C57.5566 25.8648 57.5619 25.9489 57.5831 26.0384C57.6044 26.1278 57.615 26.212 57.6256 26.2909C57.6362 26.3698 57.6416 26.4224 57.6416 26.4382C57.6416 26.475 57.6522 26.575 57.6681 26.7485C57.684 26.9221 57.6946 27.0484 57.6946 27.1378C57.7106 27.4061 57.7106 27.6691 57.6787 27.9269C57.6468 28.1846 57.5672 28.4319 57.4238 28.6633C57.4079 28.6265 57.3761 28.5949 57.3283 28.5686C57.2805 28.5423 57.2433 28.5213 57.2061 28.5002L57.1 28.6054C57.1 28.6054 57.0734 28.6686 57.0203 28.7369C56.9672 28.8053 56.93 28.8527 56.9141 28.8685L56.8079 28.9736C56.8079 28.9736 56.7548 28.9316 56.7017 28.8947C56.6486 28.8579 56.6115 28.8316 56.5955 28.8159H56.4628C56.4256 28.8159 56.3885 28.8159 56.3406 28.8001C56.2928 28.7843 56.2663 28.7843 56.2451 28.7843C56.0805 28.7475 55.9637 28.7475 55.8787 28.7843C55.7937 28.8211 55.6929 28.8211 55.5654 28.7843C55.4592 28.7685 55.369 28.6896 55.2946 28.5581C55.2203 28.4266 55.1406 28.3845 55.0504 28.4371L54.9973 28.4845ZM48.461 23.4555C48.461 23.4555 48.5141 23.4871 48.5672 23.5502C48.6202 23.6134 48.6574 23.6607 48.6733 23.6975H48.7796C48.8698 23.7133 48.9282 23.7133 48.9548 23.6818C48.9813 23.6502 49.061 23.6396 49.1831 23.6396H49.9105C50.0539 23.6239 50.1866 23.5765 50.3034 23.5082C50.4203 23.4397 50.5583 23.3819 50.7229 23.3451C50.7229 23.3293 50.7495 23.3135 50.8025 23.303C50.8557 23.2925 50.8928 23.282 50.9088 23.261C51.2858 23.0663 51.6309 22.8612 51.9335 22.6455C52.2362 22.4298 52.5389 22.172 52.8256 21.8669C52.8628 21.8301 52.9159 21.767 52.9902 21.6775C53.0645 21.5882 53.0964 21.5355 53.0964 21.5145C53.1707 21.4093 53.2292 21.2515 53.2716 21.0463C53.3141 20.8412 53.3513 20.6255 53.3778 20.4046C53.4044 20.1836 53.4203 19.9627 53.4309 19.747C53.4415 19.5314 53.4468 19.363 53.4468 19.2367C53.4468 19.1999 53.4468 19.1526 53.4309 19.0894C53.415 19.0264 53.415 18.9842 53.415 18.9685C53.415 18.8422 53.415 18.5476 53.399 18.0847C53.3831 17.6218 53.3831 17.1326 53.3725 16.6118C53.3619 16.091 53.3566 15.6019 53.3459 15.1389C53.3353 14.676 53.3247 14.3814 53.3035 14.2552C53.3035 14.2394 53.2875 14.2184 53.261 14.2026C53.2344 14.1868 53.2132 14.1605 53.192 14.1237H53.1654C52.284 14.0185 51.4822 14.1658 50.7601 14.5656C50.0379 14.9654 49.4379 15.4598 48.9495 16.049C48.9335 16.0648 48.8751 16.1489 48.7848 16.2909C48.6946 16.433 48.5937 16.5908 48.4875 16.7591C48.3813 16.9274 48.2805 17.08 48.1902 17.2115C48.0999 17.343 48.0468 17.422 48.0256 17.4377C48.0044 17.4535 47.9778 17.5113 47.93 17.6113C47.8822 17.7112 47.8344 17.8217 47.7813 17.9479C47.7282 18.0742 47.6539 18.232 47.5636 18.4319C47.5477 18.4687 47.5052 18.5687 47.4415 18.7423C47.3778 18.9159 47.3087 19.1052 47.2397 19.3157L47.038 19.9154C46.9742 20.1047 46.9317 20.2152 46.9158 20.252C46.7884 20.5571 46.7459 20.8517 46.7831 21.1462C46.8202 21.4408 46.8362 21.7775 46.8362 22.151C46.8362 22.2247 46.8521 22.3246 46.8893 22.4614C46.9265 22.5981 46.9689 22.7296 47.022 22.8612C47.0751 22.9927 47.1441 23.1136 47.2238 23.2241C47.3034 23.3346 47.399 23.3924 47.5052 23.4135C47.5583 23.4135 47.5955 23.424 47.6114 23.4397H47.8026C47.8026 23.4397 47.8556 23.4503 47.9087 23.4135C47.9618 23.3767 47.999 23.3714 48.015 23.3871H48.1211L48.1742 23.4397C48.2274 23.4924 48.2486 23.5187 48.2273 23.5187C48.2433 23.5029 48.2698 23.4819 48.307 23.4661C48.3441 23.4503 48.3813 23.4397 48.4132 23.4397L48.461 23.4555Z" fill="#36D0B8" fill-opacity="0.48"/>
<path d="M10.0324 42.0295C19.1439 42.1241 28.2289 40.909 37.3192 40.4408C46.3033 39.9779 55.3034 39.8096 64.2981 39.678C82.7708 39.4045 101.249 39.3572 119.721 39.3572C122.456 39.3572 122.461 35.1489 119.721 35.1489C101.243 35.1489 82.7708 35.1962 64.2981 35.4698C55.3034 35.6013 46.3087 35.7696 37.3192 36.2325C28.2289 36.7007 19.1439 37.9158 10.0324 37.8211C7.29781 37.7896 7.29781 41.9979 10.0324 42.0295Z" fill="#36D0B8" fill-opacity="0.48"/>
</svg>
