<svg width="117" height="43" viewBox="0 0 117 43" fill="none" xmlns="http://www.w3.org/2000/svg">
<path d="M11.3531 11.5558C11.3372 11.4295 11.3213 11.3349 11.3107 11.2612C11.3001 11.1876 11.2894 11.0929 11.2682 10.9666C11.3053 10.9509 11.4062 10.893 11.5814 10.8036C11.7567 10.7141 11.8575 10.6615 11.8947 10.6405H12.0009C12.0541 10.6563 12.1443 10.6826 12.2717 10.7088C12.3992 10.7352 12.5319 10.7668 12.6753 10.8036C12.8186 10.8404 12.9567 10.8719 13.0788 10.8982C13.2009 10.9245 13.2965 10.9456 13.3496 10.9666C13.3868 10.9824 13.4399 11.0035 13.5142 11.0193C13.5885 11.035 13.631 11.0561 13.6469 11.0718C13.6629 11.0718 13.7 11.1034 13.7531 11.1665C13.8063 11.2296 13.8434 11.2612 13.8593 11.2612C13.8753 11.277 13.9443 11.3138 14.0611 11.3664C14.1779 11.419 14.247 11.4558 14.2629 11.4716C14.2788 11.4874 14.2788 11.5452 14.2629 11.6347C14.247 11.7241 14.247 11.7662 14.2629 11.7662C14.2788 11.803 14.3372 11.8293 14.4275 11.8451C14.5178 11.8609 14.5709 11.8714 14.5921 11.8714V11.9766C14.6824 12.1186 14.762 12.2291 14.8364 12.3133C14.9107 12.3974 14.9691 12.4764 15.0116 12.5553C15.054 12.6341 15.0912 12.7236 15.1178 12.8235C15.1443 12.9235 15.1603 13.0707 15.1603 13.2654C15.1603 13.5127 15.1603 13.7283 15.1443 13.9071C15.1284 14.086 15.1018 14.3069 15.0488 14.5752L14.7248 23.2706C14.8151 24.0912 14.8523 24.9539 14.831 25.8534C14.8098 26.7529 14.8045 27.6051 14.8045 28.4099C14.8045 28.4467 14.8045 28.5414 14.7885 28.7045C14.7726 28.8676 14.7726 28.9728 14.7726 29.0254C14.7355 29.0622 14.6664 29.1569 14.5709 29.32C14.4753 29.483 14.4063 29.5883 14.3691 29.6409C14.3691 29.6567 14.316 29.6882 14.2045 29.7355C14.093 29.7829 13.9815 29.825 13.854 29.867C13.7266 29.9092 13.6045 29.9512 13.477 29.9881C13.3496 30.0249 13.27 30.0407 13.2328 30.0407H12.208C12.1337 29.8986 12.0912 29.7934 12.0753 29.7303C12.0593 29.6671 12.0434 29.6303 12.0328 29.6251C12.0222 29.6198 12.0062 29.6356 11.9797 29.6777C11.9532 29.7198 11.9053 29.7724 11.831 29.825C11.5602 29.6303 11.3584 29.3726 11.2257 29.0622C11.0929 28.7519 11.0027 28.4415 10.9708 28.1364C10.8806 27.8313 10.8274 27.5157 10.8062 27.1843C10.785 26.8529 10.7956 26.511 10.8328 26.1532L10.6682 26.3689C10.6151 26.4426 10.5779 26.4846 10.562 26.5004V26.7161L9.86106 27.5209C9.89822 27.6261 9.86106 27.7261 9.76551 27.8156C9.66995 27.9049 9.54251 27.9839 9.39912 28.0575C9.25579 28.1312 9.10712 28.189 8.95312 28.2469C8.79912 28.3047 8.68762 28.3363 8.61329 28.3521C8.25224 28.4573 7.92835 28.5414 7.64163 28.594C7.35485 28.6466 7.05752 28.7729 6.74958 28.9676H4.88581C4.88581 28.9676 4.80621 28.9518 4.69471 28.9255C4.58321 28.8992 4.50354 28.8781 4.45043 28.8571C4.43448 28.8571 4.37609 28.8413 4.28581 28.8045C4.19554 28.7677 4.09465 28.7361 3.98849 28.7098C3.88226 28.6835 3.78137 28.6519 3.69116 28.6151C3.60088 28.5782 3.54777 28.5625 3.52655 28.5625C2.84154 28.3468 2.2575 28.0207 1.769 27.5735C1.2805 27.1264 0.887558 26.6056 0.579619 26.006C0.271616 25.4063 0.0433465 24.7645 -0.110655 24.0807C-0.264657 23.3968 -0.338989 22.713 -0.338989 22.0344V21.7135C-0.338989 21.7135 -0.323042 21.6609 -0.296485 21.6083C-0.269929 21.5557 -0.24871 21.5189 -0.22749 21.5031C-0.22749 21.4873 -0.211544 21.4295 -0.184988 21.3401C-0.158431 21.2506 -0.137212 21.1506 -0.115993 21.0454C-0.0947088 20.9403 -0.0788267 20.8403 -0.0628799 20.7509C-0.0469332 20.6614 -0.0363224 20.6088 -0.0363224 20.5878C0.0911227 20.1249 0.250396 19.6304 0.452174 19.1044C0.653951 18.5784 0.871675 18.0523 1.11589 17.5263C1.36017 17.0002 1.62561 16.5058 1.91239 16.0429C2.19911 15.5799 2.49644 15.1697 2.80438 14.8119C2.85749 14.7593 2.95311 14.6699 3.08582 14.5436C3.21854 14.4174 3.30882 14.3385 3.34072 14.3017C3.3566 14.2859 3.43093 14.2491 3.55837 14.1965C3.68582 14.1439 3.8186 14.086 3.96193 14.0229C4.10532 13.9598 4.23804 13.9019 4.35488 13.8493C4.47165 13.7967 4.54598 13.7599 4.58321 13.7441C4.59909 13.7283 4.62037 13.702 4.63626 13.6757C4.6522 13.6494 4.67342 13.6336 4.68937 13.6336C4.7956 13.439 4.93365 13.297 5.09292 13.2075C5.13009 13.2075 5.21503 13.1812 5.34781 13.1286C5.48053 13.0761 5.57081 13.0392 5.60264 13.0234L5.82036 12.8078C5.85753 12.792 5.95308 12.7446 6.10175 12.6763C6.25575 12.6026 6.36725 12.55 6.44158 12.5132L6.49469 12.4869L6.54781 12.5132L6.62741 12.5921C6.71769 12.5921 6.79202 12.5657 6.84513 12.5132V12.5921C6.89825 12.45 6.98853 12.3448 7.11591 12.2712C7.24335 12.1975 7.37613 12.1449 7.51946 12.1081C7.66285 12.0713 7.81685 12.0502 7.97613 12.0398C8.1354 12.0292 8.28407 12.0082 8.40624 11.9714C8.42212 11.9714 8.48585 11.9556 8.59734 11.9293C8.70884 11.903 8.7779 11.8872 8.81507 11.8872C8.83101 11.8872 8.87345 11.8872 8.93718 11.8714C9.0009 11.8556 9.04867 11.8556 9.08584 11.8556C9.17612 11.8556 9.26106 11.8556 9.34073 11.8714C9.4204 11.8872 9.4894 11.9293 9.54251 12.0187H9.1124C9.18673 12.0555 9.32478 12.1029 9.5319 12.166C9.73895 12.2291 9.877 12.2712 9.95133 12.287L10.1691 12.1817C10.1691 12.1817 10.1797 12.1449 10.1956 12.1291L10.2487 12.0766H10.3549C10.3921 12.1134 10.4611 12.1555 10.5567 12.2081C10.6522 12.2607 10.7213 12.308 10.7584 12.3396C10.8646 12.429 10.9496 12.4711 11.0133 12.4606L11.2947 12.4185V11.7767C11.2947 11.6873 11.3053 11.6084 11.3213 11.5348L11.3531 11.5558ZM8.2469 24.9907C8.66107 24.7225 9.09645 24.4173 9.55845 24.0649C10.0204 23.7124 10.4823 23.3127 10.9496 22.8498C10.9496 22.6183 10.9655 22.2027 10.9921 21.603C11.0186 21.0034 11.0505 20.33 11.0877 19.5831C11.1248 18.8361 11.162 18.0576 11.1938 17.2527C11.2257 16.4479 11.2576 15.7167 11.2735 15.0592C11.1301 15.1486 10.9602 15.1907 10.7744 15.1907C10.5885 15.1907 10.4452 15.2065 10.3549 15.2433C10.0151 15.3853 9.69117 15.4905 9.38323 15.5642C9.07523 15.6378 8.75135 15.7325 8.41151 15.8587C7.94424 16.0376 7.47702 16.3006 7.02036 16.6478C6.56375 16.995 6.1283 17.3948 5.72475 17.8524C5.32126 18.3101 4.95487 18.7835 4.63098 19.2833C4.3071 19.783 4.04687 20.2722 3.84509 20.7562C3.80793 20.8455 3.75488 20.9981 3.68055 21.2085C3.60615 21.4189 3.56371 21.5452 3.54776 21.582V21.7977L3.49465 21.8503L3.4416 21.9029C3.35132 22.0292 3.30882 22.1238 3.31943 22.1975C3.33004 22.2711 3.33538 22.4026 3.33538 22.5973C3.33538 22.8813 3.33538 23.1548 3.35132 23.4126C3.36727 23.6704 3.39376 23.9071 3.45749 24.1228C3.52121 24.3384 3.6221 24.5278 3.77076 24.6961C3.91943 24.8644 4.13188 24.996 4.4186 25.0854H4.82209C4.85925 25.1012 4.89115 25.1327 4.9177 25.1801C4.94426 25.2274 4.94953 25.2642 4.93365 25.3011H5.55486L5.60798 25.2484L5.66109 25.1959L5.71414 25.1696L5.76725 25.1959C5.76725 25.1959 5.83097 25.238 5.89997 25.2748C5.96903 25.3116 6.02741 25.3484 6.06458 25.38L6.17081 25.4852C6.17081 25.4852 6.22392 25.4694 6.27697 25.4326C6.33008 25.3958 6.36725 25.38 6.38319 25.38C6.39914 25.38 6.47347 25.38 6.60092 25.3642C6.7283 25.3484 6.85574 25.3484 6.9938 25.3379C7.13185 25.3274 7.2593 25.3221 7.38674 25.3116C7.51419 25.3011 7.59379 25.2958 7.63096 25.2958C7.66813 25.28 7.76374 25.2274 7.91241 25.1485C8.06107 25.0696 8.17791 25.0117 8.25224 24.9749L8.2469 24.9907Z" fill="#36D0B8" fill-opacity="0.48"/>
<path d="M17.8096 28.4991C17.8096 28.4991 17.7246 28.5202 17.6079 28.5675C17.491 28.6149 17.422 28.6254 17.4061 28.6096C17.2096 28.5939 17.045 28.536 16.9176 28.4465C16.7901 28.3572 16.6945 28.2572 16.6202 28.1362C16.5459 28.0152 16.4928 27.889 16.4556 27.7364C16.4184 27.5838 16.376 27.4366 16.3229 27.2945C16.3069 27.2787 16.2645 27.2104 16.2007 27.0946C16.137 26.9789 16.1051 26.9105 16.1051 26.8947V26.7895C16.1051 26.6844 16.0945 26.5791 16.0786 26.4792C16.0627 26.3792 16.0945 26.3056 16.1848 26.253C16.1848 26.2372 16.1848 26.1478 16.1689 26.0005C16.153 25.8532 16.153 25.6901 16.153 25.5165C16.153 25.343 16.153 25.1904 16.137 25.0484C16.1211 24.9063 16.1211 24.8275 16.1211 24.8064C16.1211 24.7169 16.1211 24.596 16.1051 24.4434C16.0892 24.2909 16.0892 24.2067 16.0892 24.191C16.0892 24.0647 16.0892 23.7543 16.0733 23.2546C16.0574 22.7549 16.0521 22.213 16.0308 21.6344C16.0096 21.0557 15.999 20.5192 15.9884 20.03C15.9778 19.5408 15.9724 19.2304 15.9724 19.1042V14.2068C15.9724 14.1174 15.9724 13.9595 15.9884 13.7386C16.0043 13.5177 16.0043 13.281 16.0149 13.0285C16.0255 12.776 16.0361 12.5392 16.0574 12.3183C16.0786 12.0974 16.0839 11.9396 16.0839 11.8501C16.1582 11.7607 16.1901 11.6187 16.1795 11.4241C16.1689 11.2294 16.222 11.1295 16.3282 11.1295H16.3812C16.4556 11.1295 16.4875 11.1663 16.4875 11.2347C16.6308 11.1453 16.7105 11.0243 16.7317 10.8717C16.753 10.7192 16.8379 10.6455 17.0025 10.6455V11.2084C17.13 11.2084 17.2733 11.1716 17.4326 11.1032C17.5919 11.0348 17.6556 10.9086 17.6237 10.7297C17.6237 10.6929 17.5919 10.6561 17.5282 10.6087C17.4645 10.5614 17.422 10.5351 17.4061 10.514L17.3795 10.4614C17.4167 10.4614 17.5122 10.4614 17.6609 10.4456C17.8096 10.4298 17.9105 10.4246 17.9423 10.4036C17.9583 10.3878 17.9848 10.3667 18.022 10.351L18.1282 10.2983H18.2344C18.399 10.4036 18.484 10.5193 18.4892 10.6455C18.4946 10.7718 18.5477 10.9296 18.6379 11.1295C18.6538 11.1453 18.6804 11.1663 18.707 11.1821C18.7335 11.1979 18.7494 11.2189 18.7494 11.2347C18.7653 11.2347 18.8237 11.2504 18.914 11.2768C19.0043 11.3031 19.0574 11.3241 19.0786 11.3452C19.0946 11.3452 19.1158 11.3872 19.1317 11.4767C19.1477 11.5661 19.1689 11.6187 19.1848 11.6397H19.2644C19.3176 11.6766 19.3495 11.7502 19.3601 11.8659C19.3707 11.9817 19.3707 12.1132 19.3601 12.2552C19.3495 12.3972 19.3441 12.5234 19.3335 12.6287C19.3229 12.7391 19.3335 12.7917 19.3759 12.7917C19.4503 12.7917 19.5247 12.7497 19.6043 12.6707C19.6839 12.5918 19.7689 12.5024 19.8486 12.4025L20.0928 12.1079C20.1724 12.008 20.2414 11.9343 20.2946 11.8817C20.3317 11.8449 20.4008 11.7976 20.4963 11.7344L20.7937 11.5451C20.8945 11.4819 20.9848 11.4241 21.0645 11.3715C21.1441 11.3188 21.2025 11.282 21.2397 11.2662C21.383 11.1768 21.4999 11.1453 21.5902 11.1716C21.6804 11.1979 21.7706 11.1243 21.8609 10.9454H24.6432C24.6432 10.9454 24.7123 10.9612 24.7919 10.9875C24.8716 11.0137 24.93 11.0348 24.9671 11.0559C25.0734 11.1295 25.2486 11.2242 25.4822 11.3504C25.7158 11.4767 25.8538 11.5451 25.8857 11.5661C25.9389 11.6187 26.0875 11.7502 26.3317 11.9553C26.576 12.1605 26.7672 12.3236 26.9105 12.4498C26.9477 12.4866 27.0167 12.6076 27.1282 12.8128C27.2344 13.018 27.2981 13.1389 27.3193 13.1757C27.3353 13.1915 27.3672 13.2179 27.415 13.2547C27.4627 13.2915 27.4839 13.3178 27.4839 13.3336C27.4999 13.3704 27.5583 13.4703 27.6486 13.6439C27.7388 13.8176 27.792 13.9175 27.8132 13.9543C27.8344 13.9911 27.8609 14.0648 27.9087 14.1805C27.9566 14.2962 28.0043 14.4277 28.0575 14.5698C28.1105 14.7118 28.1636 14.8485 28.222 14.9853C28.2804 15.1221 28.3123 15.2221 28.3282 15.2957C28.3442 15.3483 28.3707 15.4219 28.4079 15.5114C28.4451 15.6008 28.4822 15.6955 28.5141 15.7902C28.5459 15.8848 28.5831 15.9795 28.6097 16.0585C28.6362 16.1373 28.6521 16.1899 28.6521 16.2057C28.6681 16.2952 28.6946 16.4161 28.7318 16.5687C28.7689 16.7212 28.8008 16.8738 28.8273 17.0211C28.8539 17.1684 28.8804 17.3104 28.907 17.4366C28.9336 17.5629 28.9494 17.6313 28.9494 17.6523L29.114 23.1915C29.0238 23.586 29.0185 23.9911 29.0982 24.4066C29.1778 24.8222 29.1831 25.2115 29.114 25.5691C29.0769 25.7112 29.0557 25.8848 29.0451 26.0899C29.0344 26.2951 29.0291 26.5055 29.0291 26.7212V27.8994C29.0291 27.9889 29.0132 28.0415 28.976 28.0625L28.8698 28.1151L28.7636 28.1677C28.7264 28.1835 28.6999 28.2414 28.684 28.3308C28.6468 28.4571 28.5566 28.5413 28.4132 28.5833C28.2698 28.6254 28.1902 28.7201 28.1689 28.8621L28.0893 28.7569L27.8716 28.9726C27.8716 28.9726 27.792 28.9831 27.6805 28.9989C27.569 29.0147 27.4893 29.0252 27.4362 29.0252C27.2397 29.0252 27.0698 29.0252 26.9371 29.0094C26.8043 28.9936 26.6822 28.9673 26.5707 28.9147C26.4592 28.8621 26.3636 28.7832 26.2733 28.6885C26.1831 28.5939 26.0769 28.4676 25.9495 28.3256C25.9335 28.273 25.907 28.1835 25.8698 28.0573C25.8326 27.931 25.7955 27.7995 25.7636 27.6575C25.7317 27.5155 25.6893 27.3787 25.6415 27.2577C25.5937 27.1367 25.5671 27.042 25.5459 26.9894V25.2483C25.5831 25.2325 25.5884 25.1378 25.5725 24.9694C25.5565 24.8011 25.5565 24.6959 25.5725 24.6591C25.5884 24.6223 25.5884 24.5696 25.5565 24.496C25.5247 24.4224 25.5087 24.3698 25.4875 24.3329H25.4079C25.4079 24.1699 25.4079 24.0331 25.4238 23.9174C25.4397 23.8017 25.4662 23.6702 25.5194 23.5281C25.5034 23.5123 25.5087 23.4755 25.5459 23.4229C25.5831 23.3703 25.599 23.3335 25.599 23.3177C25.599 23.3019 25.5884 23.2125 25.5725 23.0652C25.5565 22.9179 25.53 22.7443 25.5034 22.555C25.4769 22.3656 25.445 22.1131 25.4079 21.7922L25.461 21.7396L25.5141 21.687V21.5818C25.5141 21.4187 25.4822 21.2504 25.4185 21.0715C25.3547 20.8927 25.3123 20.7244 25.2964 20.5613V19.4093C25.2964 19.3041 25.2857 19.1515 25.2698 18.9569C25.2326 18.6886 25.2114 18.352 25.2008 17.9416C25.1901 17.5314 25.1424 17.1999 25.0521 16.9527C25.0362 16.9159 24.9937 16.8475 24.93 16.737C24.8662 16.6266 24.8344 16.5687 24.8344 16.5477V16.1215C24.8344 16.1215 24.8132 16.0689 24.7654 16.0163C24.7176 15.9637 24.6751 15.9006 24.6326 15.827C24.5901 15.7533 24.5424 15.6902 24.4999 15.6271C24.4574 15.564 24.4309 15.5219 24.4309 15.5061C24.2344 15.2378 24.022 15.0537 23.7937 14.959C23.5654 14.8643 23.2733 14.8275 22.9176 14.8643C22.6839 14.8643 22.4663 14.938 22.2698 15.0905C22.0733 15.2431 21.8928 15.4272 21.7282 15.6534C21.5636 15.8796 21.4255 16.1111 21.3087 16.3635C21.1919 16.616 21.0963 16.8369 21.0273 17.0316C20.953 17.2104 20.8945 17.4366 20.8362 17.7155C20.7778 17.9942 20.7299 18.2836 20.6716 18.5834C20.6132 18.8832 20.5654 19.1831 20.5229 19.4671C20.4804 19.7512 20.4379 19.9826 20.4008 20.1615C20.3636 20.2877 20.3264 20.4614 20.2786 20.6823C20.2308 20.9032 20.1937 21.1241 20.1565 21.3398C20.1193 21.5555 20.0822 21.7501 20.0503 21.929C20.0184 22.1078 19.9972 22.2078 19.9972 22.2235C19.9972 22.2604 19.9972 22.4129 19.9813 22.6759C19.9653 22.939 19.9653 23.2493 19.9547 23.586C19.9441 23.9227 19.9388 24.254 19.9388 24.575V27.6259C19.9229 27.6627 19.8857 27.7153 19.8326 27.789C19.7795 27.8626 19.7423 27.9152 19.7264 27.9521C19.7264 27.9678 19.7105 28.0205 19.6839 28.0993C19.6574 28.1783 19.6414 28.2309 19.6414 28.2466C19.445 28.4413 19.2379 28.5728 19.0202 28.6359C18.8025 28.699 18.553 28.7306 18.2662 28.7306H17.9955C17.9955 28.7306 17.9423 28.6938 17.8892 28.6254C17.8361 28.557 17.799 28.5202 17.7831 28.5202L17.8096 28.4991Z" fill="#36D0B8" fill-opacity="0.48"/>
<path d="M42.1506 29.2191C42.1135 29.1823 42.055 29.1086 41.9754 28.9929C41.8957 28.8772 41.8373 28.8035 41.8002 28.7667C41.7471 28.6931 41.678 28.6404 41.5984 28.6036C41.5187 28.5668 41.4497 28.5036 41.3966 28.4142C41.3223 28.3248 41.2745 28.2196 41.248 28.0934C41.2214 27.9671 41.1895 27.8619 41.1523 27.7725C41.1365 27.6988 41.1099 27.5884 41.0727 27.4358C41.0356 27.2832 40.9984 27.1254 40.9665 26.9676C40.9347 26.8098 40.8922 26.652 40.8604 26.4995C40.8285 26.3469 40.8072 26.2365 40.8072 26.1628L40.5895 26.1365C40.4462 26.4942 40.2656 26.7362 40.0479 26.873C39.8303 27.0097 39.5701 27.1833 39.2621 27.3937L38.9913 27.662C38.9382 27.6778 38.8161 27.6988 38.6249 27.7146C38.4338 27.7304 38.3488 27.8198 38.37 27.9829C38.2798 27.9829 38.1205 27.9829 37.8815 27.9671C37.6426 27.9513 37.4939 27.9513 37.4249 27.9513C37.3878 27.9513 37.3612 27.9618 37.3453 27.9776L37.2391 28.0302C37.2019 28.067 37.1488 28.0934 37.0745 28.1092C37.0214 28.1249 36.9736 28.1512 36.9417 28.188H36.4957C36.2356 28.188 36.039 28.1775 35.9169 28.1617C35.901 28.1617 35.8479 28.1512 35.7683 28.1354C35.6886 28.1196 35.6302 28.1196 35.5931 28.1354L35.5134 28.188H35.4072C35.2107 28.1512 35.0196 28.0986 34.8391 28.025C34.6585 27.9513 34.4674 27.8935 34.2709 27.8356C34.255 27.8356 34.2178 27.8356 34.1647 27.8198C34.1116 27.804 34.0745 27.804 34.0585 27.804L33.9258 27.6988C33.8886 27.6988 33.8621 27.7199 33.8461 27.7672C33.8302 27.8145 33.8037 27.8409 33.7665 27.8619C33.7293 27.8829 33.6656 27.8619 33.5753 27.8198C33.4851 27.7777 33.3576 27.6568 33.1983 27.4569C33.1452 27.5463 33.1027 27.5831 33.0762 27.5621C33.0497 27.541 33.0231 27.5095 32.9966 27.4569C32.97 27.4043 32.9435 27.3411 32.9169 27.2675C32.8903 27.1938 32.8585 27.1623 32.8213 27.1623C32.747 27.0729 32.6567 26.9992 32.5506 26.9361C32.4444 26.873 32.3594 26.7993 32.3063 26.7099C31.5682 26.247 31.032 25.5631 30.6974 24.6636C30.3629 23.7641 30.1877 22.8119 30.1718 21.8125C30.1718 21.581 30.193 21.2759 30.2408 20.9024C30.2886 20.529 30.347 20.1502 30.432 19.7662C30.5169 19.3822 30.5965 19.014 30.6868 18.6563C30.7771 18.2986 30.8674 18.0145 30.9576 17.7988C30.9735 17.762 31.0001 17.6936 31.0372 17.599C31.0744 17.5043 31.1116 17.4411 31.1435 17.4253C31.1435 17.4096 31.1541 17.3885 31.17 17.3728L31.2231 17.3202C31.239 17.2834 31.2656 17.2044 31.2921 17.0782C31.3187 16.9519 31.3346 16.873 31.3346 16.8362C31.6957 16.0892 32.1895 15.3475 32.8213 14.6163C33.4532 13.8852 34.0745 13.2697 34.6851 12.77C34.701 12.7542 34.7488 12.7226 34.8178 12.6752C34.8922 12.6279 34.9346 12.5964 34.9506 12.5806C34.9877 12.5648 35.0833 12.5017 35.2479 12.3912C35.4125 12.2808 35.5187 12.2018 35.5718 12.1492C35.8426 11.9546 36.1559 11.7757 36.5169 11.6127C36.878 11.4496 37.2497 11.3181 37.6373 11.2129C38.0249 11.1077 38.4231 11.0182 38.8267 10.9446C39.2303 10.871 39.6125 10.8183 39.9736 10.7815C40.0479 10.7815 40.1382 10.7973 40.2444 10.8236C40.3506 10.8499 40.4356 10.8236 40.4886 10.7289C40.5046 10.7447 40.5046 10.7289 40.4886 10.6606C40.4728 10.5922 40.4621 10.5554 40.4621 10.5396C40.4992 10.0398 40.5046 9.47169 40.4886 8.8247C40.4728 8.17765 40.4728 7.60431 40.4886 7.08351C40.4886 7.0309 40.4621 6.8994 40.409 6.69424C40.3559 6.48909 40.3347 6.35232 40.3559 6.27868C40.3559 6.26289 40.3559 6.16821 40.3719 5.99987C40.3877 5.83155 40.3931 5.64743 40.4143 5.4528C40.4355 5.25817 40.4462 5.07932 40.4568 4.91624C40.4674 4.75317 40.4727 4.65849 40.4727 4.62166C40.4727 4.60588 40.4834 4.52172 40.4992 4.37969C40.5152 4.23766 40.5364 4.08511 40.5524 3.9273C40.5683 3.76949 40.5842 3.61694 40.5949 3.48543C40.6055 3.35392 40.6108 3.26449 40.6108 3.23293C40.6267 3.19611 40.648 3.12773 40.6639 3.01726C40.6798 2.90679 40.701 2.84893 40.717 2.82788C40.7541 2.75424 40.8072 2.71216 40.8816 2.69638C40.9559 2.68059 40.9612 2.59643 40.9081 2.4544C40.9453 2.4544 41.0143 2.44388 41.1099 2.4281C41.2055 2.41232 41.2745 2.4018 41.3117 2.4018C41.3276 2.4018 41.3807 2.41232 41.4604 2.4281C41.54 2.44388 41.5931 2.4544 41.609 2.4544C41.6462 2.4544 41.7046 2.4281 41.7842 2.3755C41.8639 2.32289 41.917 2.28607 41.9329 2.27029C41.9489 2.27029 42.002 2.28081 42.0816 2.29659C42.1612 2.31237 42.2143 2.32289 42.2302 2.32289C42.3736 2.30711 42.5117 2.27555 42.6497 2.22821C42.7878 2.18086 42.9258 2.18086 43.0692 2.21242C43.0851 2.21242 43.1011 2.21242 43.1117 2.22821C43.1223 2.24398 43.1329 2.24398 43.1542 2.24398H43.1807C43.1807 2.24398 43.2338 2.30185 43.2869 2.36498C43.34 2.4281 43.3772 2.45966 43.3931 2.45966C43.409 2.49648 43.4621 2.5333 43.5418 2.56487C43.6214 2.59643 43.6745 2.61747 43.6905 2.61747C43.8179 2.69112 43.8603 2.7858 43.8232 2.91205C43.786 3.0383 43.786 3.14351 43.8232 3.23293C43.8232 3.24871 43.8391 3.2908 43.8657 3.35392C43.8922 3.41704 43.9134 3.45913 43.9347 3.47491C43.9718 3.60116 43.9825 3.80631 43.9772 4.09037C43.9718 4.37443 44.009 4.57958 44.0993 4.70583C44.0993 4.79525 44.0993 4.94254 44.1152 5.1477C44.1312 5.35285 44.1312 5.57379 44.1418 5.81576C44.1524 6.05774 44.1577 6.28394 44.1683 6.49961C44.1789 6.71529 44.1842 6.86784 44.1842 6.952C44.1842 7.03617 44.1842 7.23079 44.2002 7.52536C44.2161 7.81993 44.2214 8.15662 44.2427 8.53014C44.2639 8.90359 44.2745 9.30338 44.2851 9.71895C44.2958 10.1345 44.3011 10.5238 44.3117 10.871C44.3223 11.2181 44.3276 11.5075 44.3382 11.7389C44.3488 11.9704 44.3542 12.0967 44.3542 12.1124V12.4753C44.3542 12.6648 44.3542 12.8699 44.3382 13.0908C44.3223 13.3117 44.3223 13.5169 44.3223 13.7063V14.6426C44.3223 14.953 44.3329 15.2897 44.3488 15.6474C44.3648 16.005 44.3807 16.3417 44.3913 16.6626C44.4019 16.9835 44.4073 17.1781 44.4073 17.2518V17.4779C44.4073 17.5937 44.4073 17.72 44.3913 17.8515C44.3754 17.983 44.3754 18.1092 44.3648 18.2249C44.3542 18.3407 44.3488 18.4143 44.3488 18.4511V19.924C44.3488 19.9767 44.3488 20.0766 44.3648 20.2186C44.3807 20.3607 44.3807 20.5132 44.3913 20.671C44.4019 20.8288 44.4073 20.9814 44.4179 21.1234C44.4285 21.2654 44.4338 21.3654 44.4338 21.418C44.4497 21.4338 44.4763 21.4864 44.5028 21.5653C44.5294 21.6441 44.5453 21.702 44.5453 21.7388C44.5453 21.7546 44.5294 21.8072 44.5028 21.8862C44.4763 21.965 44.4603 22.0177 44.4603 22.0334C44.4444 22.0703 44.4338 22.1071 44.4338 22.1386V22.3017C44.4338 22.4648 44.4551 22.5489 44.5028 22.57C44.5506 22.591 44.5718 22.6436 44.5718 22.733V22.7857L44.5188 22.9487C44.5028 22.9856 44.4922 23.0224 44.4922 23.0697V23.2696C44.5082 23.4853 44.5294 23.7641 44.5453 24.1113C44.5612 24.4585 44.5825 24.8004 44.5984 25.1265C44.6143 25.4527 44.6355 25.7419 44.6515 25.984C44.6674 26.2259 44.6781 26.3522 44.6781 26.3732C44.6781 26.3942 44.6781 26.4416 44.694 26.5205C44.7099 26.5994 44.7152 26.6836 44.7364 26.773C44.7577 26.8624 44.7683 26.9466 44.7789 27.0255C44.7895 27.1044 44.7949 27.157 44.7949 27.1728C44.7949 27.2096 44.8055 27.3096 44.8214 27.4831C44.8373 27.6568 44.8479 27.783 44.8479 27.8724C44.8639 28.1407 44.8639 28.4037 44.8321 28.6615C44.8002 28.9192 44.7206 29.1665 44.5772 29.3979C44.5612 29.3611 44.5294 29.3296 44.4816 29.3032C44.4338 29.2769 44.3966 29.2559 44.3594 29.2348L44.2533 29.34C44.2533 29.34 44.2267 29.4032 44.1736 29.4715C44.1205 29.5399 44.0833 29.5873 44.0674 29.6031L43.9612 29.7082C43.9612 29.7082 43.9081 29.6662 43.8551 29.6294C43.8019 29.5925 43.7648 29.5663 43.7488 29.5505H43.6161C43.579 29.5505 43.5418 29.5505 43.4939 29.5347C43.4462 29.5189 43.4196 29.5189 43.3984 29.5189C43.2338 29.4821 43.117 29.4821 43.032 29.5189C42.9471 29.5557 42.8462 29.5557 42.7187 29.5189C42.6126 29.5031 42.5223 29.4242 42.448 29.2927C42.3736 29.1612 42.294 29.1191 42.2037 29.1717L42.1506 29.2191ZM35.6143 24.1902C35.6143 24.1902 35.6674 24.2217 35.7205 24.2848C35.7736 24.348 35.8107 24.3953 35.8267 24.4321H35.9329C36.0232 24.4479 36.0816 24.4479 36.1081 24.4164C36.1347 24.3848 36.2143 24.3743 36.3364 24.3743H37.0638C37.2072 24.3585 37.3399 24.3112 37.4568 24.2428C37.5736 24.1744 37.7117 24.1165 37.8763 24.0797C37.8763 24.0639 37.9028 24.0481 37.9559 24.0376C38.009 24.0271 38.0461 24.0166 38.0621 23.9956C38.4391 23.8009 38.7842 23.5958 39.0869 23.3801C39.3895 23.1644 39.6922 22.9067 39.9789 22.6016C40.0161 22.5647 40.0692 22.5016 40.1435 22.4121C40.2179 22.3228 40.2497 22.2702 40.2497 22.2491C40.324 22.1439 40.3825 21.9861 40.4249 21.7809C40.4674 21.5758 40.5046 21.3601 40.5311 21.1392C40.5577 20.9182 40.5736 20.6973 40.5842 20.4816C40.5949 20.266 40.6001 20.0976 40.6001 19.9713C40.6001 19.9345 40.6001 19.8872 40.5842 19.8241C40.5683 19.761 40.5683 19.7188 40.5683 19.7031C40.5683 19.5769 40.5683 19.2822 40.5524 18.8194C40.5364 18.3565 40.5364 17.8672 40.5258 17.3464C40.5152 16.8257 40.5099 16.3365 40.4992 15.8735C40.4886 15.4107 40.478 15.116 40.4568 14.9898C40.4568 14.9741 40.4409 14.953 40.4143 14.9372C40.3877 14.9214 40.3665 14.8951 40.3453 14.8583H40.3188C39.4373 14.7531 38.6355 14.9004 37.9134 15.3002C37.1913 15.7 36.5913 16.1945 36.1028 16.7836C36.0868 16.7994 36.0284 16.8836 35.9382 17.0255C35.8479 17.1676 35.7471 17.3254 35.6408 17.4937C35.5346 17.662 35.4338 17.8146 35.3435 17.9461C35.2532 18.0776 35.2001 18.1566 35.1789 18.1723C35.1577 18.1881 35.1311 18.2459 35.0833 18.3459C35.0355 18.4458 34.9877 18.5564 34.9346 18.6826C34.8816 18.8088 34.8072 18.9666 34.717 19.1665C34.701 19.2034 34.6585 19.3033 34.5948 19.4769C34.5311 19.6505 34.4621 19.8399 34.3931 20.0503L34.1913 20.65C34.1276 20.8393 34.0851 20.9498 34.0691 20.9866C33.9417 21.2917 33.8992 21.5863 33.9364 21.8809C33.9736 22.1754 33.9895 22.5121 33.9895 22.8856C33.9895 22.9593 34.0054 23.0592 34.0426 23.196C34.0798 23.3327 34.1222 23.4642 34.1753 23.5958C34.2285 23.7273 34.2975 23.8482 34.3771 23.9587C34.4567 24.0692 34.5523 24.1271 34.6585 24.1481C34.7116 24.1481 34.7488 24.1586 34.7647 24.1744H34.9559C34.9559 24.1744 35.0089 24.1849 35.0621 24.1481C35.1152 24.1113 35.1523 24.106 35.1683 24.1218H35.2744L35.3276 24.1744C35.3807 24.227 35.4019 24.2533 35.3807 24.2533C35.3966 24.2375 35.4231 24.2165 35.4603 24.2007C35.4974 24.1849 35.5346 24.1744 35.5665 24.1744L35.6143 24.1902Z" fill="#36D0B8" fill-opacity="0.48"/>
<path d="M53.7354 29.0624L53.682 29.115C53.682 29.115 53.6447 29.1413 53.6293 29.1413L53.5759 29.1676C53.5013 29.1676 53.4589 29.1256 53.4435 29.0361C53.4274 28.9467 53.3798 28.8836 53.3104 28.8467C53.2043 28.952 53.0872 28.9993 52.9599 28.9782C52.8326 28.9572 52.7104 28.9099 52.5934 28.8309C52.477 28.7521 52.3651 28.6574 52.2539 28.5522L51.9565 28.2576V27.8052C51.9565 27.7 51.9565 27.6001 51.9406 27.5106C51.9246 27.4212 51.9246 27.3686 51.9246 27.3476C51.9246 27.3107 51.9087 27.2423 51.8715 27.1319C51.8343 27.0214 51.8184 26.953 51.8184 26.9162C51.7813 26.5427 51.7706 26.1008 51.7759 25.5906C51.7813 25.0803 51.7919 24.5543 51.8025 24.0125C51.8131 23.4707 51.8184 22.9394 51.8291 22.4186C51.8397 21.8978 51.8291 21.456 51.7865 21.0825C51.7865 21.0457 51.7707 20.9615 51.7334 20.83C51.6963 20.6984 51.6804 20.6091 51.6804 20.5775V18.5154C51.6804 18.3524 51.6804 18.1577 51.6963 17.9263C51.7122 17.6948 51.7122 17.4476 51.7228 17.1898C51.7334 16.932 51.7388 16.6796 51.7494 16.4429C51.76 16.2062 51.7494 16.001 51.7334 15.8432C51.7334 15.8064 51.7334 15.7064 51.7494 15.5328C51.7653 15.3592 51.7653 15.1804 51.7653 14.9858V14.1283C51.7653 14.1283 51.7494 14.0599 51.7228 13.981C51.6963 13.9021 51.6804 13.8495 51.6804 13.8337V13.4971C51.6804 13.2919 51.691 13.0709 51.7069 12.829C51.7228 12.587 51.7388 12.3661 51.7494 12.1609C51.76 11.9558 51.7653 11.8348 51.7653 11.7979C51.7653 11.7611 51.7494 11.677 51.7122 11.5454C51.6751 11.4139 51.6591 11.3245 51.6591 11.293C51.6219 10.9195 51.6167 10.5828 51.6432 10.2882C51.6698 9.99365 51.6432 9.67805 51.5476 9.33612L51.6804 5.66966C51.7334 5.66966 51.7865 5.63809 51.8291 5.57497C51.8715 5.51185 51.898 5.4645 51.898 5.42768L51.6804 5.212V5.18571C51.6804 5.04368 51.6963 4.90691 51.7334 4.78592C51.7707 4.66493 51.7865 4.52816 51.7865 4.38613C51.7865 4.20728 51.7707 4.09155 51.7334 4.03895C51.6963 3.98635 51.6804 3.87062 51.6804 3.69177C51.6804 3.56551 51.691 3.44453 51.7069 3.31828C51.7228 3.19203 51.8131 3.11313 51.9777 3.07631L52.0839 3.26568C52.1742 3.22885 52.2275 3.16047 52.2487 3.06578C52.27 2.9711 52.3227 2.90271 52.4134 2.86589H52.6043L52.6571 2.81329L52.7104 2.76068H52.9284C52.9284 2.76068 52.9651 2.79224 52.9811 2.85537C52.9972 2.91849 53.0184 2.96058 53.0345 2.97636C53.0506 2.97636 53.0872 2.97636 53.1406 2.96058C53.1933 2.94479 53.2203 2.96058 53.2203 2.97636C53.2364 2.99214 53.2628 3.04474 53.2891 3.12365C53.3155 3.20255 53.3316 3.25516 53.3316 3.27094L53.385 3.29724C53.385 3.29724 53.4222 3.28672 53.4377 3.27094C53.4538 3.27094 53.4647 3.26042 53.4647 3.24463L53.491 3.19203L53.5438 3.08682C53.5811 3.03422 53.6344 2.98688 53.7084 2.95532C53.783 2.92376 53.8363 2.88693 53.873 2.86063C53.9103 2.83433 53.9161 2.81329 53.8891 2.79224C53.8627 2.7712 53.783 2.76594 53.6608 2.76594C53.6447 2.72912 53.6184 2.66074 53.592 2.56605C53.5656 2.47136 53.5496 2.40298 53.5496 2.36616V2.26095C53.5656 2.22413 53.6023 2.18204 53.6557 2.12944C53.7084 2.07684 53.7457 2.05054 53.7618 2.05054C53.7778 2.05054 53.8254 2.07684 53.8949 2.12944C53.9637 2.18204 54.0222 2.22939 54.0588 2.26095C54.0961 2.26095 54.1122 2.29777 54.1122 2.36616H54.0061C54.0061 2.36616 53.9797 2.40298 53.9797 2.41876C53.9637 2.43454 53.9527 2.45558 53.9527 2.47136C53.9688 2.47136 54.0273 2.48715 54.1173 2.51345C54.208 2.53975 54.2607 2.55553 54.282 2.55553C54.3192 2.69756 54.3565 2.80276 54.4041 2.87641C54.4524 2.95005 54.5424 3.01844 54.6858 3.09208C54.6858 3.07631 54.6961 3.05 54.7121 3.01318L54.7546 2.93428L54.797 2.85537L54.9031 2.58709C54.9404 2.66074 55.0098 2.7975 55.105 3.00266C55.2008 3.20781 55.2696 3.34458 55.3069 3.41822C55.323 3.49187 55.3494 3.6076 55.3866 3.78119C55.4239 3.95478 55.4612 4.12311 55.4927 4.30196C55.5249 4.48081 55.5616 4.63863 55.5886 4.78592C55.6149 4.93321 55.631 5.00685 55.631 5.02789V6.25881C55.631 6.29564 55.6149 6.42189 55.5886 6.64808C55.5616 6.87428 55.5352 7.12677 55.5088 7.41082C55.4825 7.6949 55.4664 7.97892 55.4555 8.25252C55.4452 8.52605 55.4554 8.74698 55.4715 8.91005C55.4715 8.94688 55.4876 9.04679 55.5249 9.22041C55.5615 9.39397 55.5776 9.49395 55.5776 9.53077V9.74645C55.5937 9.88843 55.604 10.1251 55.604 10.4566V11.5665C55.604 11.9768 55.604 12.4029 55.5886 12.8395C55.5776 13.2761 55.5725 13.6864 55.5725 14.0704V15.5539C55.5886 15.5907 55.6149 15.6748 55.6413 15.8064C55.6683 15.9379 55.6837 16.0273 55.6837 16.0589C55.6998 16.2009 55.7159 16.4271 55.7262 16.7427C55.7371 17.0583 55.7474 17.3739 55.7686 17.6948C55.7898 18.0157 55.8008 18.305 55.8117 18.5628C55.822 18.8205 55.8271 18.9783 55.8271 19.031V19.4991C55.8271 19.7779 55.8271 20.0988 55.8432 20.4775C55.8593 20.8563 55.8593 21.2245 55.8593 21.6032V23.2234C55.8593 23.5548 55.8593 23.902 55.8432 24.265C55.8271 24.6279 55.8271 24.9804 55.8271 25.3066V25.9904C55.8271 26.043 55.8271 26.1219 55.8117 26.2324C55.7956 26.3428 55.7898 26.4533 55.7686 26.569C55.7474 26.6847 55.7371 26.7952 55.7262 26.9057C55.7159 27.0162 55.7107 27.0951 55.7107 27.1477C55.7107 27.1845 55.6947 27.2844 55.6574 27.458C55.6201 27.6316 55.604 27.7316 55.604 27.7684C55.604 27.7842 55.5886 27.8684 55.5616 28.0103C55.5352 28.1524 55.5191 28.2418 55.5191 28.2786C55.5191 28.3155 55.4664 28.3628 55.3545 28.4259C55.2433 28.4891 55.132 28.5574 55.0041 28.6416C54.8767 28.7258 54.7546 28.7889 54.6273 28.8415C54.4999 28.8941 54.4093 28.9204 54.3565 28.9204C54.2132 28.9204 54.1071 28.952 54.0434 29.0151C53.9797 29.0782 53.8788 29.1098 53.7303 29.1098L53.7354 29.0624Z" fill="#36D0B8" fill-opacity="0.48"/>
<path d="M58.329 26.4634C58.2917 26.3898 58.2544 26.2951 58.2069 26.1689C58.1593 26.0426 58.1168 25.9164 58.0744 25.7796C58.0313 25.6428 57.9889 25.5166 57.9522 25.3903C57.9149 25.2641 57.8886 25.1747 57.8725 25.1221C57.8352 25.0695 57.7979 24.9801 57.7664 24.8538C57.7342 24.7275 57.7027 24.6381 57.6867 24.5855C57.6867 24.5697 57.6757 24.5171 57.6597 24.4382C57.6442 24.3593 57.6172 24.2699 57.5909 24.1699C57.5645 24.07 57.5381 23.9806 57.5111 23.9017C57.4848 23.8227 57.4687 23.7649 57.4687 23.7281C57.4526 23.7123 57.416 23.686 57.3626 23.6597C57.3092 23.6334 57.2828 23.6124 57.2828 23.5913C57.2668 23.5913 57.2565 23.5545 57.2565 23.4861C57.2565 23.4177 57.2456 23.3703 57.2301 23.3546C57.2456 23.3388 57.2616 23.2967 57.2726 23.2336C57.2828 23.1705 57.2726 23.1284 57.2565 23.1126C57.2565 23.0968 57.2404 23.0548 57.2031 22.9917C57.1658 22.9285 57.1504 22.8864 57.1504 22.8706C57.1504 22.8338 57.1504 22.7549 57.1343 22.6287C57.1182 22.5024 57.1182 22.3762 57.108 22.2394C57.097 22.1026 57.0919 21.9816 57.0809 21.8659C57.0707 21.7502 57.0655 21.6818 57.0655 21.666C57.0655 21.6503 57.0443 21.5976 56.9961 21.5188C56.9485 21.4398 56.9273 21.3872 56.9273 21.3714C56.9112 21.3557 56.89 21.2715 56.8739 21.1295C56.8585 20.9874 56.8372 20.8717 56.8212 20.7823V20.3299C56.8372 20.2931 56.8636 20.2562 56.9009 20.2247L56.98 20.1458C56.89 20.13 56.8424 20.0143 56.8315 19.7986C56.8212 19.5829 56.8315 19.3514 56.8739 19.1042C56.9163 18.857 56.9485 18.6098 56.9961 18.3678C57.0443 18.1258 57.0655 17.9733 57.0655 17.8996C57.0655 17.8628 57.0758 17.7839 57.0919 17.6576C57.1079 17.5314 57.1292 17.4051 57.1446 17.2684C57.1607 17.1316 57.1819 17.0106 57.198 16.8949C57.214 16.7791 57.2243 16.7055 57.2243 16.6687C57.2243 16.6529 57.2243 16.6213 57.2404 16.574C57.2565 16.5266 57.2565 16.4898 57.2565 16.453C57.506 15.2747 57.9677 14.27 58.6473 13.4441C59.3218 12.6129 60.1185 11.9133 61.0368 11.3399C61.4354 11.1243 61.8598 10.9717 62.3221 10.8875C62.7838 10.8034 63.2404 10.756 63.6969 10.7666C64.1541 10.7771 64.5945 10.8402 65.0086 10.9559C65.4227 11.0716 65.7944 11.2347 66.1185 11.4504C66.1346 11.4872 66.1821 11.5398 66.2509 11.6135L66.3841 11.745C66.3841 11.745 66.4792 11.7765 66.6123 11.8397C66.7448 11.9028 66.8245 11.9449 66.8406 11.9607C67.2708 12.2658 67.6636 12.6182 68.0141 13.0338C68.3645 13.4441 68.6828 13.8965 68.9747 14.3962C69.2461 14.8591 69.4795 15.301 69.6756 15.7218C69.8724 16.1426 70.037 16.5635 70.1643 16.9948C70.2916 17.4262 70.3823 17.8733 70.435 18.3467C70.4884 18.8202 70.5096 19.3304 70.4884 19.888C70.4884 20.0511 70.4775 20.2562 70.462 20.5193C70.446 20.7823 70.4299 21.04 70.4196 21.3083C70.4087 21.5766 70.3926 21.8344 70.3662 22.0869C70.3399 22.3394 70.3186 22.5393 70.2974 22.7023C70.2814 22.7392 70.255 22.797 70.228 22.8759C70.2016 22.9548 70.1855 23.0074 70.1855 23.0232C70.1855 23.0758 70.1592 23.1862 70.1058 23.3441C70.0531 23.5019 69.9997 23.6807 69.9412 23.8649C69.8833 24.049 69.83 24.2278 69.7663 24.3856C69.7026 24.5434 69.6602 24.6644 69.6441 24.7328C69.6281 24.7486 69.6017 24.7906 69.5753 24.8538C69.5483 24.9169 69.5271 24.9485 69.5059 24.9485C69.4898 24.9643 69.4634 24.9748 69.4261 24.9748C69.3895 24.9748 69.3837 24.9643 69.3998 24.9485C69.1664 25.4325 68.9381 25.8375 68.7098 26.1636C68.4816 26.4898 68.2372 26.7896 67.9665 27.0473C67.6952 27.3051 67.3872 27.5419 67.0476 27.7575C66.7075 27.9732 66.3095 28.2046 65.8581 28.4519C65.842 28.4519 65.7996 28.4729 65.7359 28.5202C65.6722 28.5676 65.6247 28.6044 65.5874 28.6412C65.5501 28.6781 65.4491 28.7149 65.2742 28.7465C65.0987 28.778 64.9984 28.8096 64.9611 28.8253C64.4724 28.899 63.9998 28.9674 63.5432 29.041C63.0867 29.1147 62.6192 29.0936 62.1517 28.9884C61.701 28.899 61.2599 28.7623 60.8297 28.5728C60.3995 28.3835 60.0015 28.1678 59.6408 27.9153C59.3906 27.7207 59.1682 27.4735 58.9765 27.1789C58.7856 26.8843 58.5682 26.6476 58.313 26.4687L58.329 26.4634ZM60.4632 18.089C60.4478 18.1784 60.4156 18.2573 60.368 18.3309C60.3204 18.4046 60.2831 18.4782 60.2459 18.5572C60.2086 18.636 60.1983 18.7202 60.2034 18.7991C60.2086 18.878 60.2619 18.9727 60.3519 19.0779V21.6713C60.3519 21.7081 60.3783 21.8448 60.4317 22.0869C60.4851 22.3288 60.5326 22.5024 60.5641 22.6076C60.5487 22.6444 60.5539 22.7128 60.5911 22.8233C60.6278 22.9337 60.6548 22.9917 60.6709 23.0127C60.7236 23.2073 60.7821 23.4388 60.8458 23.6965C60.9094 23.9542 61.0368 24.1489 61.2387 24.2699C61.3287 24.3435 61.4142 24.4224 61.4933 24.5119C61.573 24.6013 61.6315 24.6539 61.6688 24.6749C61.6849 24.6907 61.7222 24.7012 61.7749 24.7012C61.8122 24.717 61.8495 24.7644 61.8971 24.8328C61.9447 24.9012 61.982 24.9748 62.0193 25.0485C62.0566 25.1221 62.0881 25.1799 62.1151 25.222C62.1415 25.2641 62.173 25.2641 62.2103 25.2062C62.5343 25.3325 62.8796 25.3851 63.2513 25.3693C63.623 25.3535 63.9785 25.2746 64.329 25.1431C64.6794 25.0116 65.0035 24.8328 65.3006 24.6065C65.5983 24.3804 65.8478 24.1279 66.0439 23.8438C66.2619 23.5072 66.4426 23.1547 66.5962 22.8022C66.7506 22.4498 66.9145 22.0973 67.0952 21.7607V21.6818L67.1222 21.6292C67.1222 21.5924 67.1222 21.5292 67.1377 21.4398C67.1537 21.3504 67.1589 21.2609 67.1801 21.1715C67.2013 21.0821 67.2071 20.998 67.2071 20.9191V20.7717C67.2071 20.7717 67.1801 20.7192 67.1274 20.6666L67.2598 20.5613C67.2598 20.5613 67.2708 20.535 67.2868 20.4299C67.3023 20.3246 67.3235 20.2404 67.3396 20.1878C67.3769 19.9932 67.4084 19.846 67.4354 19.746C67.4617 19.6461 67.4515 19.5198 67.3929 19.3567C67.3769 19.3041 67.3556 19.2147 67.3396 19.0884C67.3235 18.9622 67.3023 18.8359 67.2868 18.6992C67.2708 18.5624 67.2438 18.4519 67.2174 18.352C67.191 18.252 67.1698 18.189 67.1486 18.1521L66.984 17.7786C66.984 17.705 66.9576 17.605 66.9042 17.4683C66.8509 17.3315 66.7872 17.2 66.7133 17.0685C66.6387 16.937 66.5641 16.8212 66.485 16.7213C66.4053 16.6213 66.3255 16.5635 66.2567 16.5477L66.2034 16.7371C66.2034 16.7371 66.1661 16.7213 66.15 16.7371C66.1346 16.7529 66.1133 16.7529 66.0973 16.7371C66.06 16.7003 66.0227 16.6581 65.9912 16.6055C65.959 16.553 65.9378 16.5056 65.9378 16.474C65.9378 16.4582 65.9487 16.4478 65.9642 16.4478C65.9802 16.4478 66.0015 16.4372 66.0175 16.4214C66.0336 16.4056 66.0548 16.3951 66.0709 16.3951L66.0973 16.3425V16.2899C66.0812 16.2373 66.0548 16.1847 66.0175 16.1269C65.9429 16.0216 65.8851 15.9743 65.8266 15.9954C65.7893 15.9059 65.7359 15.7744 65.6619 15.6061C65.5874 15.4377 65.5288 15.3062 65.4703 15.2168C65.4549 15.2168 65.444 15.2063 65.444 15.1905C65.444 15.1748 65.444 15.1642 65.4279 15.1642C65.4125 15.1642 65.4125 15.1537 65.4125 15.1379C65.3964 15.1221 65.3855 15.1011 65.3855 15.0853C65.37 15.0695 65.2954 15.0275 65.1681 14.9643L64.9238 14.8434C64.9238 14.8434 64.8762 14.8223 64.828 14.775C64.7804 14.7276 64.754 14.7066 64.7328 14.7066C64.6794 14.6908 64.6158 14.6697 64.5412 14.654C64.4884 14.6382 64.4351 14.6277 64.3926 14.6277C64.3502 14.6277 64.3078 14.6171 64.2705 14.6013C63.7824 14.4962 63.331 14.5277 62.906 14.6961C62.481 14.8644 62.1042 15.1221 61.7698 15.4746C61.4354 15.827 61.1589 16.2321 60.9307 16.7055C60.7024 17.1789 60.5378 17.6471 60.4317 18.11L60.4632 18.089Z" fill="#36D0B8" fill-opacity="0.48"/>
<path d="M70.4293 13.3496C70.4293 13.0813 70.4454 12.8656 70.4827 12.6921C70.52 12.5237 70.5991 12.3186 70.727 12.0871L70.8331 12.2765C70.8331 12.2765 70.8859 12.2607 70.9392 12.2344C70.992 12.2081 71.0293 12.1871 71.0453 12.166H71.1514L71.2575 12.2187C71.2575 12.2187 71.3 12.2555 71.3373 12.2713C71.3533 12.3081 71.3636 12.3764 71.3636 12.4869C71.3636 12.5973 71.3533 12.6657 71.3373 12.7026C71.3745 12.6868 71.4118 12.65 71.4594 12.5921C71.5019 12.5395 71.534 12.5027 71.5552 12.4869V12.2713C71.5552 12.2344 71.5392 12.1345 71.5019 11.9608C71.4646 11.7873 71.4491 11.6873 71.4491 11.6505C71.4491 11.6137 71.4646 11.5611 71.4916 11.4874C71.5179 11.4138 71.5392 11.3717 71.5604 11.3559C71.5816 11.3401 71.608 11.3296 71.6562 11.3296H71.8999C71.943 11.3296 71.9693 11.3401 71.9693 11.3559C72.0066 11.3717 72.0433 11.4191 72.0915 11.4874C72.1391 11.5558 72.15 11.6137 72.1339 11.6505V11.2507C72.224 11.4453 72.3834 11.5768 72.6226 11.64C72.8612 11.7031 73.0522 11.7452 73.2168 11.7609C73.2329 11.7767 73.2592 11.8136 73.2862 11.8662C73.3126 11.9188 73.3287 11.9556 73.3287 11.9714C73.366 12.024 73.4508 12.145 73.5833 12.3344C73.7164 12.5237 73.8064 12.6447 73.8386 12.6973C73.8752 12.6605 73.9286 12.6447 74.0032 12.6447C74.0771 12.6447 74.1305 12.6605 74.1678 12.6973C74.1832 12.6973 74.2044 12.7394 74.2205 12.8288C74.2366 12.9182 74.2578 12.9709 74.2739 12.9919C74.4912 13.4759 74.7465 14.0545 75.0436 14.7331C75.3407 15.4117 75.6435 16.106 75.9464 16.8215C76.2486 17.5368 76.5514 18.2312 76.8492 18.9098C77.1462 19.5884 77.4009 20.1671 77.6188 20.651C77.6349 20.7036 77.6664 20.7825 77.7147 20.8929C77.7622 21.0034 77.7886 21.0613 77.8098 21.0823C77.831 21.1034 77.8632 21.1296 77.9159 21.177C77.9693 21.2244 78.0066 21.2506 78.0227 21.2717C78.0381 21.3085 78.0542 21.3769 78.0651 21.4716C78.0754 21.5662 78.0863 21.6662 78.1075 21.7661C78.1288 21.8661 78.15 21.9503 78.1873 22.0186C78.2239 22.087 78.2876 22.1239 78.3782 22.1239C78.3943 22.1239 78.4155 22.1133 78.431 22.0976C78.4843 22.0082 78.5429 21.8924 78.6065 21.7504C78.6702 21.6084 78.7287 21.4558 78.7814 21.298C78.8348 21.1402 78.8882 20.9877 78.9306 20.8456C78.973 20.7036 79.0155 20.5773 79.0528 20.4721C79.0894 20.3827 79.1267 20.2091 79.1743 19.9514C79.2225 19.6936 79.2489 19.5252 79.2701 19.4568C79.3235 19.5095 79.3974 19.5095 79.4881 19.4568C79.5247 19.4043 79.562 19.3043 79.5942 19.1623L79.6739 18.8414C79.6893 18.7888 79.7536 18.6047 79.8649 18.2944C79.9761 17.984 80.088 17.6421 80.2044 17.2791C80.3214 16.9161 80.4275 16.5847 80.5285 16.2901C80.6294 15.9955 80.6879 15.8325 80.704 15.7957C80.704 15.7588 80.7304 15.6904 80.7837 15.58L80.8899 15.3643C80.9265 15.2906 80.9587 15.2013 80.985 15.0961C81.012 14.9908 81.0435 14.8909 81.0808 14.8015C81.1181 14.6963 81.1606 14.5805 81.2133 14.4543L81.1072 14.3491C81.2345 14.3123 81.3091 14.2228 81.3355 14.0808C81.3625 13.9388 81.3779 13.823 81.3779 13.7336H81.5695C81.5695 13.6284 81.5534 13.4864 81.5161 13.318C81.4789 13.1497 81.5161 13.0077 81.6222 12.9025C81.6383 12.9025 81.6595 12.9025 81.6756 12.8867C81.6917 12.8709 81.7129 12.8709 81.7283 12.8709V13.2181C81.819 13.055 81.8717 12.8656 81.8929 12.6395C81.909 12.4185 81.9566 12.2607 82.0261 12.1713C82.0261 12.1871 82.0363 12.1976 82.0524 12.1976H82.1058C82.1058 12.1976 82.1424 12.2239 82.1585 12.2239C82.1585 12.1871 82.1585 12.1134 82.1424 11.9977C82.127 11.882 82.127 11.8083 82.127 11.7715C82.1424 11.6979 82.2222 11.5558 82.3553 11.3454C82.4877 11.135 82.5835 10.9983 82.6363 10.9456H82.743C82.7957 10.9299 82.8433 10.8615 82.8755 10.7457C82.9076 10.63 82.9604 10.509 83.024 10.3828C83.0877 10.2565 83.1725 10.1461 83.2793 10.0461C83.3854 9.94617 83.55 9.8988 83.7673 9.8988V10.1145L83.8207 10.1408H83.8734C83.9107 10.125 83.9802 10.1039 84.0914 10.0882C84.2027 10.0724 84.2721 10.0514 84.3094 10.0356C84.3094 10.125 84.3248 10.1776 84.3621 10.1987C84.3994 10.2197 84.447 10.2355 84.5107 10.2512C84.5743 10.267 84.6328 10.2934 84.6862 10.3302C84.7389 10.367 84.7872 10.4354 84.8187 10.5459C84.8187 10.5827 84.8187 10.6458 84.8032 10.7352C84.7871 10.8246 84.8347 10.8667 84.9248 10.8667C84.9408 10.8509 84.9678 10.8299 85.0045 10.8141L85.1112 10.7615C85.1112 10.7615 85.1537 10.7352 85.1903 10.7352H85.2701C85.2701 10.772 85.281 10.872 85.2971 11.0456C85.3125 11.2192 85.3234 11.3243 85.3234 11.3823C85.3395 11.4559 85.3974 11.4927 85.488 11.5032C85.5781 11.5137 85.6417 11.519 85.679 11.519C85.679 11.7136 85.679 11.9135 85.6629 12.1187C85.6475 12.3238 85.6154 12.5237 85.5408 12.7236C85.5253 12.7394 85.4829 12.8025 85.4186 12.913C85.3549 13.0235 85.3234 13.0919 85.3234 13.1287V13.4233C85.2328 13.8178 85.1003 14.2018 84.9305 14.5753C84.7608 14.9488 84.6116 15.3222 84.4843 15.701C84.4843 15.7378 84.4367 15.9009 84.3358 16.1954C84.2348 16.49 84.1338 16.8162 84.0226 17.1739C83.9107 17.5316 83.8156 17.863 83.7249 18.1628C83.6349 18.4627 83.5924 18.6257 83.5924 18.6468C83.5391 18.7888 83.4863 18.9413 83.4439 19.0992C83.4015 19.2569 83.3372 19.4095 83.2684 19.5516C83.141 19.8198 83.0349 20.1091 82.9443 20.4195C82.8542 20.7298 82.7533 21.0192 82.6472 21.2875C82.5726 21.4821 82.5038 21.661 82.4292 21.8241C82.3553 21.9871 82.2968 22.1554 82.2382 22.3343C82.2382 22.35 82.2222 22.4132 82.1958 22.5237C82.1694 22.6341 82.1482 22.7025 82.127 22.7393C82.0209 23.2233 81.8775 23.6914 81.6968 24.1438C81.5161 24.5962 81.3567 25.0591 81.2081 25.5221C81.1181 25.7904 81.0435 26.0533 80.9799 26.3111C80.9162 26.5688 80.8416 26.8109 80.7516 27.0318C80.6616 27.2527 80.5497 27.4736 80.4114 27.6893C80.2738 27.905 80.0932 28.0997 79.8597 28.2785L79.5357 28.4941C79.3711 28.5994 79.2752 28.6625 79.2386 28.6836C79.2225 28.6993 79.1852 28.7046 79.1318 28.6993C79.0791 28.694 79.0418 28.6836 79.0258 28.6836C78.8984 28.7204 78.8026 28.7624 78.7448 28.815C78.6862 28.8677 78.5853 28.8939 78.4631 28.8939H78.2985L78.2188 28.7887C78.0542 28.7519 77.8793 28.7361 77.6774 28.7361C77.4755 28.7361 77.3057 28.694 77.1623 28.6046C77.1462 28.5888 77.125 28.5625 77.1089 28.5362C77.0929 28.5099 77.0716 28.4941 77.0562 28.4941C76.3708 27.5105 75.7445 26.4847 75.176 25.4168C74.6083 24.349 74.0668 23.2864 73.5409 22.2343C73.3602 21.8766 73.2014 21.4874 73.0522 21.0718C72.9036 20.6562 72.7654 20.2564 72.6226 19.883C72.6066 19.8461 72.5693 19.7673 72.5159 19.641C72.4632 19.5148 72.4098 19.3885 72.3513 19.2517C72.2934 19.115 72.2452 18.994 72.1867 18.8783C72.1288 18.7625 72.0967 18.6888 72.0806 18.652C72.0066 18.4363 71.8787 18.0787 71.6877 17.5842C71.4967 17.0897 71.3109 16.5584 71.1199 16.0061C70.9283 15.4537 70.7637 14.9277 70.6203 14.428C70.4769 13.9283 70.403 13.5811 70.403 13.3864L70.4293 13.3496Z" fill="#36D0B8" fill-opacity="0.48"/>
<path d="M85.3393 21.3507C85.3393 21.3507 85.3502 21.3138 85.3656 21.298L85.419 21.2454V21.1929C85.4351 21.0508 85.4081 20.9456 85.3393 20.872C85.2705 20.7983 85.2332 20.7037 85.2332 20.5774C85.2332 20.488 85.2544 20.4196 85.302 20.3775C85.3502 20.3354 85.3766 20.2671 85.3978 20.1776C85.3978 20.104 85.3766 20.0566 85.329 20.0303C85.2808 20.004 85.2595 19.9462 85.2595 19.8567C85.2595 19.8199 85.2595 19.7778 85.2756 19.7252C85.2917 19.6726 85.3232 19.6358 85.3978 19.62C85.3071 19.5674 85.2332 19.4938 85.1798 19.4043V19.2992C85.1798 19.2992 85.2332 19.2834 85.2859 19.257C85.3393 19.2308 85.3766 19.215 85.3926 19.215L85.419 19.1624V19.1098C85.419 19.1098 85.3656 19.0677 85.3129 19.0414C85.2595 19.0151 85.2222 18.9993 85.2068 18.9993C85.3502 18.9625 85.4563 18.8888 85.52 18.7731C85.5836 18.6574 85.6151 18.5259 85.6151 18.3838C85.6312 18.2418 85.6048 18.1471 85.536 18.105C85.4666 18.063 85.4293 17.984 85.4293 17.8788C85.4293 17.7 85.4827 17.5685 85.5939 17.479C85.7058 17.3897 85.7907 17.2844 85.8653 17.1582C85.9714 17.0161 86.0299 16.79 86.0402 16.4743C86.0511 16.1587 86.0723 15.9168 86.109 15.7379C86.1463 15.4906 86.1945 15.2855 86.2581 15.1382C86.3218 14.9909 86.3906 14.7857 86.4594 14.5385C86.4594 14.5227 86.4755 14.4701 86.5018 14.3912C86.5288 14.3123 86.5552 14.2229 86.5816 14.123C86.6086 14.023 86.6349 13.9336 86.6613 13.8547C86.6877 13.7758 86.7037 13.7232 86.7037 13.7074L86.7571 13.6548L86.8098 13.6022C86.8471 13.5653 86.9057 13.4812 86.9854 13.3497C87.0651 13.2182 87.1178 13.1287 87.1339 13.0972C87.1712 13.113 87.2246 13.1235 87.2985 13.1235C87.3731 13.1235 87.4258 13.113 87.4631 13.0972C87.4792 13.0814 87.5004 13.013 87.5165 12.8973C87.5319 12.7815 87.5532 12.7132 87.5692 12.6974C87.5692 12.6816 87.6014 12.6606 87.665 12.6448C87.7287 12.629 87.7609 12.608 87.7609 12.5922C87.7763 12.5554 87.8033 12.487 87.8399 12.3765C87.8772 12.2661 87.8933 12.1977 87.8933 12.1608C87.9467 12.1082 87.9833 12.0819 87.9994 12.0819C88.0528 12.0451 88.175 12.0188 88.3659 12.0031C88.5569 11.9873 88.6791 11.9767 88.7325 11.9767C88.7691 11.7979 88.8385 11.6716 88.9498 11.6033C89.0617 11.5349 89.1678 11.477 89.2739 11.4402C89.38 11.4034 89.47 11.3613 89.5446 11.3086C89.6192 11.2561 89.6346 11.1667 89.5979 11.0404C89.8474 10.9668 90.0809 10.8826 90.2879 10.7879C90.495 10.6932 90.7232 10.6406 90.9785 10.6406C91.3926 10.6406 91.8118 10.6721 92.2369 10.7353C92.6613 10.7984 93.049 10.9352 93.4104 11.1509C93.447 11.1667 93.5004 11.2245 93.575 11.3139C93.6489 11.4034 93.6914 11.4559 93.7074 11.477C93.7235 11.477 93.7762 11.4928 93.856 11.5191C93.9357 11.5454 93.9891 11.5611 94.0052 11.5611C94.0206 11.5769 94.0791 11.619 94.1698 11.6822C94.2598 11.7453 94.3125 11.7768 94.3337 11.7768H94.5254C94.5254 11.7768 94.5678 11.8294 94.5942 11.8821C94.6205 11.9347 94.6366 11.9715 94.6366 11.9873C94.6527 11.9873 94.6739 12.0031 94.69 12.0293C94.706 12.0556 94.7273 12.0767 94.7427 12.0977C95.4281 12.6132 95.9959 13.134 96.4473 13.6495C96.8987 14.165 97.3289 14.8068 97.743 15.5748C97.7803 15.6485 97.8279 15.7484 97.8915 15.8852C97.9552 16.0219 98.0188 16.1482 98.0825 16.2744L98.258 16.6216C98.3108 16.7268 98.3378 16.79 98.3378 16.811V17.053C98.3378 17.1266 98.3378 17.195 98.3217 17.2686C98.3056 17.3423 98.3056 17.3949 98.3056 17.4317V18.1261C98.3056 18.3049 98.2632 18.5206 98.1732 18.7678C98.1359 18.8941 98.0774 18.9993 97.9976 19.0887C97.9179 19.1782 97.8388 19.2781 97.7694 19.3833C97.6793 19.4885 97.6369 19.5622 97.6369 19.599C97.6369 19.6358 97.5623 19.6989 97.4189 19.7883C97.3816 19.8251 97.2807 19.8778 97.1058 19.9514C96.9302 20.025 96.8299 20.0672 96.7926 20.083C96.7765 20.0987 96.7232 20.1408 96.6441 20.2039C96.5643 20.2671 96.511 20.2986 96.4949 20.2986C96.1869 20.4248 95.821 20.5038 95.3851 20.5406C94.9497 20.5774 94.5839 20.6037 94.2759 20.6195C94.1113 20.6195 93.7872 20.6195 93.3043 20.6037C92.8207 20.5879 92.3057 20.5827 91.7643 20.5616C91.2228 20.5406 90.7129 20.5301 90.2403 20.5196C89.7677 20.509 89.4333 20.5038 89.2527 20.5038C89.2366 20.5038 89.2051 20.5143 89.1568 20.5301C89.1093 20.5458 89.072 20.5669 89.0347 20.5827V20.6353C89.0347 20.8667 89.072 21.1561 89.1414 21.5033C89.2102 21.8504 89.3112 22.2028 89.4385 22.5606C89.5658 22.9182 89.704 23.2497 89.8577 23.5653C90.012 23.8809 90.1606 24.1229 90.304 24.3017C90.3413 24.3543 90.4101 24.4333 90.522 24.5437C90.6332 24.6542 90.7444 24.7594 90.8615 24.8646C90.9785 24.9698 91.0949 25.0698 91.2119 25.1592C91.3289 25.2486 91.4241 25.3012 91.4936 25.3222C91.5302 25.338 91.6312 25.3748 91.8067 25.4274C91.9816 25.48 92.0723 25.5169 92.0883 25.5326C92.1038 25.5326 92.1411 25.5484 92.1944 25.5747C92.2472 25.601 92.2844 25.6168 92.3005 25.6168H92.3803C92.4169 25.6168 92.5179 25.601 92.6934 25.5747C92.8683 25.5484 92.9693 25.5326 93.0066 25.5326C93.0226 25.5326 93.0599 25.5484 93.1127 25.5747C93.166 25.601 93.2033 25.6168 93.2188 25.6168C93.2348 25.6168 93.2721 25.601 93.3255 25.5747C93.3782 25.5484 93.4155 25.5326 93.4316 25.5326C93.4682 25.5169 93.5216 25.5116 93.5962 25.5169C93.6701 25.5221 93.7126 25.5326 93.7287 25.5326C93.7447 25.5326 93.7872 25.5169 93.8508 25.48C93.9145 25.4432 93.9569 25.4274 93.973 25.4274C94.0103 25.4116 94.1112 25.3748 94.2861 25.3222C94.4617 25.2697 94.5626 25.2328 94.5993 25.217C94.706 25.1802 94.8649 25.1118 95.0719 25.0014C95.279 24.8909 95.3908 24.8331 95.4121 24.812L98.3005 22.0293C98.3905 22.0661 98.4226 22.1082 98.3963 22.1608C98.3693 22.2134 98.3751 22.2765 98.4117 22.3501C98.4117 22.3659 98.4387 22.3975 98.4915 22.4448C98.5448 22.4922 98.5712 22.5184 98.5712 22.5395C98.5712 22.5606 98.5712 22.5974 98.5873 22.6605C98.6033 22.7236 98.6033 22.771 98.6033 22.8078C98.6033 22.9498 98.5873 23.0655 98.5609 23.1549C98.5339 23.2444 98.4754 23.3496 98.3854 23.4759H98.4915C98.5976 23.4759 98.6824 23.4338 98.7467 23.3444C98.8104 23.2549 98.8953 23.1918 99.0014 23.1549V23.318C98.9853 23.4443 98.9641 23.5547 98.948 23.6547C98.9326 23.7546 98.9055 23.8651 98.8689 23.9913L98.7622 24.0966C98.7622 24.0966 98.7622 24.1439 98.7782 24.1912C98.7943 24.2386 98.7943 24.2754 98.7943 24.3123H99.0914C99.0547 24.3491 98.9801 24.4437 98.8631 24.6068C98.7467 24.7699 98.6721 24.8751 98.6348 24.9277V25.0066C98.6348 25.0803 98.6509 25.1276 98.6882 25.1539C98.7255 25.1802 98.7409 25.2223 98.7409 25.2749V25.3275L98.6348 25.4327C98.5821 25.4853 98.5339 25.5221 98.5024 25.5379C98.4863 25.5537 98.4599 25.6063 98.4226 25.6852C98.3854 25.7641 98.3481 25.8482 98.3005 25.9377C98.2529 26.0271 98.2156 26.1113 98.1783 26.1902C98.141 26.2691 98.1146 26.3217 98.0986 26.3375C98.0825 26.3743 98.0401 26.4321 97.9764 26.5111C97.9127 26.59 97.8703 26.6426 97.8542 26.6584C97.8176 26.6742 97.7745 26.6952 97.7218 26.711L97.5572 26.7636C97.5572 26.7636 97.5359 26.7846 97.5411 26.8319C97.5462 26.8793 97.5411 26.9214 97.525 26.9635C97.5096 27.0056 97.4826 27.0424 97.4453 27.0686C97.4086 27.095 97.3392 27.0897 97.2279 27.0529C97.1218 27.1792 96.9675 27.3422 96.7714 27.5474C96.5746 27.7525 96.3727 27.8998 96.1766 27.9892C96.1393 27.9892 96.0493 28.0155 95.9059 28.0681C95.7625 28.1207 95.6828 28.1575 95.6616 28.1733C95.6403 28.1891 95.6243 28.2259 95.6082 28.2786C95.5927 28.3312 95.5715 28.368 95.5555 28.3838C95.5021 28.4732 95.3908 28.5469 95.2314 28.5995C94.7427 28.7941 94.2437 28.894 93.7338 28.894H91.0737C91.0364 28.894 90.9836 28.8782 90.909 28.8519C90.8351 28.8256 90.7927 28.8046 90.7766 28.7836C90.7393 28.7678 90.6647 28.7362 90.5483 28.6888C90.4313 28.6415 90.304 28.5889 90.1715 28.5258C90.0384 28.4627 89.9111 28.4101 89.7941 28.3627C89.6777 28.3154 89.6031 28.2891 89.5658 28.268C89.5285 28.247 89.4276 28.2154 89.2527 28.1629C89.0771 28.1102 88.9768 28.0734 88.9395 28.0576C88.7749 27.984 88.6154 27.8946 88.4508 27.7788C88.2862 27.6631 88.1428 27.5526 88.0206 27.4422C88.0046 27.4264 87.9409 27.3738 87.8297 27.2949C87.7178 27.216 87.649 27.1634 87.6117 27.1476C87.559 27.095 87.5056 27.0108 87.4471 26.8951C87.3885 26.7794 87.341 26.6584 87.2985 26.5321C87.2561 26.4059 87.2188 26.2902 87.1924 26.1849C87.1661 26.0797 87.1449 26.0061 87.1236 25.9693C87.1076 25.9535 87.0703 25.9062 87.0169 25.8378C86.9642 25.7694 86.9108 25.6852 86.8523 25.5958C86.7944 25.5064 86.7462 25.4222 86.7037 25.3433C86.6613 25.2644 86.6298 25.2065 86.6086 25.1697C86.5713 25.1171 86.5179 25.0066 86.444 24.8488C86.3694 24.691 86.2948 24.5121 86.2157 24.328C86.136 24.1439 86.0562 23.9598 85.9868 23.7915C85.918 23.6231 85.8595 23.5021 85.8222 23.4285C85.7855 23.3759 85.7482 23.2654 85.7161 23.1076C85.6846 22.9498 85.6524 22.8499 85.6363 22.8131C85.6363 22.7763 85.6261 22.7079 85.61 22.5974C85.5939 22.4869 85.5675 22.3712 85.5412 22.2344C85.5148 22.0976 85.4936 21.9819 85.4717 21.8715C85.4505 21.761 85.4454 21.6926 85.4454 21.6558C85.4454 21.64 85.4293 21.5874 85.4029 21.5085C85.3766 21.4296 85.3605 21.377 85.3605 21.3612L85.3393 21.3507ZM89.5555 16.9635C90.0223 17.0004 90.5162 17.0424 91.0261 17.095C91.536 17.1476 92.0028 17.174 92.4169 17.174C92.7571 17.174 93.0863 17.1529 93.4046 17.1056C93.7235 17.0582 94.0418 17.0214 94.3659 16.9846H94.472C94.472 16.9846 94.5466 16.932 94.6366 16.8794C94.7273 16.8268 94.78 16.79 94.8012 16.7742H94.8546C94.8546 16.7742 94.8919 16.7636 94.9073 16.7479C94.9073 16.5533 94.8758 16.3534 94.8121 16.1587C94.7485 15.9641 94.6475 15.7905 94.4983 15.6485H94.3922C94.0688 15.1487 93.7023 14.7489 93.2985 14.4439C92.8953 14.1387 92.3745 13.9915 91.743 13.9915C91.6369 13.9915 91.4987 14.023 91.3392 14.0861C91.1798 14.1493 91.0261 14.2229 90.8827 14.3123C90.7393 14.4017 90.601 14.5017 90.4789 14.6069C90.3573 14.7121 90.2718 14.8121 90.2352 14.9015C90.1979 14.9541 90.1342 15.0646 90.0436 15.2223C89.9535 15.3802 89.9002 15.4801 89.8789 15.517C89.8577 15.5538 89.8365 15.6221 89.7992 15.7327C89.7626 15.8431 89.7253 15.9536 89.6931 16.0693C89.6616 16.185 89.6243 16.2902 89.5979 16.3902C89.5709 16.4901 89.5555 16.548 89.5555 16.5637C89.5394 16.5795 89.5285 16.6058 89.5285 16.6427V16.7742C89.5285 16.7742 89.5285 16.8215 89.5446 16.8689C89.5607 16.9162 89.5606 16.9425 89.5606 16.9635H89.5555Z" fill="#36D0B8" fill-opacity="0.48"/>
<path d="M100.063 27.641C100.138 27.5147 100.116 27.4253 100.01 27.3727C99.9042 27.3201 99.8457 27.1938 99.8457 26.9992V26.7309C99.8618 26.6941 99.9042 26.6047 99.9679 26.4626C100.032 26.3206 100.063 26.2312 100.063 26.1943V25.8998L100.116 25.8472L100.17 25.7945C100.17 25.7945 100.206 25.7261 100.223 25.6473C100.239 25.5684 100.26 25.5158 100.276 25.5C100.276 25.4842 100.276 25.4474 100.26 25.3948C100.244 25.3421 100.26 25.3053 100.276 25.2895C100.563 24.7372 101.003 24.4584 101.598 24.4584H101.922C101.975 24.4742 102.113 24.5057 102.325 24.5531C102.538 24.6004 102.687 24.6372 102.755 24.6741C103.005 24.7635 103.159 24.8582 103.212 24.9529C103.265 25.0476 103.382 25.2001 103.562 25.3948C103.6 25.4316 103.69 25.5158 103.833 25.6473C103.976 25.7788 104.056 25.8682 104.077 25.8998C104.205 26.0944 104.29 26.3311 104.333 26.6099C104.375 26.8887 104.401 27.1307 104.401 27.3463C104.401 27.5936 104.311 27.8303 104.131 28.0407C103.95 28.2511 103.759 28.4352 103.562 28.5773C103.382 28.7035 103.164 28.7824 102.915 28.8192C102.665 28.8561 102.426 28.8718 102.214 28.8718C101.8 28.8718 101.396 28.7403 100.998 28.4826C100.599 28.2249 100.286 27.9408 100.053 27.641H100.063ZM100.037 17.6305C99.9094 17.5042 99.8721 17.3254 99.9306 17.0939C99.9891 16.8625 99.973 16.6573 99.9042 16.4785C99.9203 14.853 99.9679 13.2855 100.037 11.7652C100.111 10.2502 100.18 8.67735 100.255 7.05718C100.255 7.0414 100.255 6.98353 100.271 6.88359C100.286 6.78364 100.292 6.67844 100.313 6.56271C100.334 6.44698 100.345 6.33125 100.356 6.21552C100.366 6.0998 100.371 6.00511 100.371 5.93673C100.371 5.88412 100.371 5.80522 100.387 5.69475C100.403 5.58428 100.403 5.47382 100.413 5.35809C100.424 5.24236 100.43 5.1319 100.44 5.02143C100.451 4.91096 100.457 4.83205 100.457 4.77945C100.457 4.72685 100.499 4.67424 100.589 4.61638C100.695 4.45331 100.775 4.28498 100.817 4.10613C100.86 3.92728 100.95 3.74842 101.072 3.56957C101.088 3.56957 101.109 3.55379 101.125 3.52749C101.141 3.50118 101.163 3.48541 101.179 3.48541C101.194 3.46962 101.2 3.43806 101.194 3.39072C101.189 3.34338 101.194 3.31707 101.237 3.29603C101.365 3.19083 101.428 3.1014 101.438 3.02775C101.449 2.95411 101.455 2.88572 101.455 2.81208C101.455 2.73843 101.476 2.67531 101.523 2.61219C101.572 2.54906 101.699 2.48068 101.916 2.41229C101.932 2.39651 101.975 2.37021 102.038 2.34391C102.102 2.31761 102.144 2.30182 102.161 2.30182C102.177 2.30182 102.235 2.30182 102.336 2.28605C102.437 2.27026 102.501 2.27026 102.538 2.27026C102.845 2.28605 103.085 2.39651 103.254 2.59114C103.425 2.78578 103.621 2.96463 103.833 3.1277C104.067 3.30655 104.279 3.46962 104.47 3.62217C104.662 3.77472 104.799 3.9904 104.89 4.27972V5.05825C104.89 5.22132 104.89 5.37387 104.874 5.52642C104.858 5.67897 104.858 5.77891 104.858 5.83678C104.821 6.58375 104.784 7.32022 104.736 8.04615C104.688 8.77209 104.651 9.50326 104.614 10.2555C104.614 10.2713 104.614 10.3186 104.63 10.387C104.646 10.4554 104.646 10.5342 104.646 10.6132C104.646 10.6921 104.646 10.771 104.662 10.8394C104.677 10.9078 104.677 10.9551 104.677 10.9709C104.677 11.0077 104.677 11.0866 104.662 11.2129C104.646 11.3391 104.646 11.4759 104.635 11.6285C104.625 11.781 104.614 11.9177 104.592 12.044C104.571 12.1702 104.566 12.2492 104.566 12.286V12.8067C104.566 12.9225 104.566 13.033 104.582 13.1434C104.598 13.2539 104.598 13.3117 104.598 13.3328C104.598 13.459 104.582 13.7378 104.555 14.1744C104.529 14.611 104.497 15.074 104.46 15.5684C104.423 16.0629 104.385 16.5205 104.354 16.9624C104.322 17.4043 104.301 17.6831 104.301 17.8041C104.301 17.8409 104.3 17.9408 104.317 18.1144C104.333 18.2881 104.333 18.4774 104.343 18.6878C104.354 18.8982 104.359 19.1139 104.359 19.319V19.7872C104.359 19.8241 104.375 19.924 104.401 20.0976C104.428 20.2712 104.444 20.3711 104.444 20.4079C104.444 20.4237 104.444 20.45 104.428 20.4868C104.412 20.5237 104.412 20.55 104.412 20.5658C104.375 20.8866 104.232 21.1813 103.982 21.4495C103.732 21.7178 103.494 21.9387 103.281 22.1176C103.191 22.1912 103.079 22.2333 102.941 22.2491C102.803 22.2648 102.703 22.2859 102.628 22.3017C102.591 22.3175 102.516 22.3595 102.4 22.4227C102.283 22.4858 102.209 22.5174 102.171 22.5174C102.155 22.5174 102.081 22.5016 101.953 22.4753C101.826 22.449 101.736 22.4279 101.683 22.4069C101.359 22.3017 101.104 22.1491 100.913 21.9545C100.721 21.7598 100.547 21.5073 100.387 21.2075C100.371 21.1707 100.345 21.076 100.307 20.9287C100.271 20.7815 100.244 20.6657 100.228 20.5921C100.138 20.0924 100.09 19.5978 100.079 19.1087C100.069 18.6194 100.063 18.125 100.063 17.6252L100.037 17.6305Z" fill="#36D0B8" fill-opacity="0.48"/>
<path d="M108.814 1.57637C108.904 1.57637 108.979 1.56058 109.031 1.52376C109.085 1.48693 109.148 1.47116 109.222 1.47116H109.276C109.276 1.47116 109.35 1.50272 109.44 1.56584C109.53 1.62897 109.584 1.66053 109.605 1.66053C109.658 1.69735 109.796 1.76574 110.009 1.8762C110.221 1.98667 110.359 2.05506 110.412 2.09188C110.375 2.1813 110.396 2.28125 110.481 2.40223C110.566 2.52323 110.614 2.58635 110.63 2.60213C110.879 2.83359 111.177 3.11765 111.522 3.44379C111.867 3.76993 112.212 4.11711 112.562 4.47482C112.913 4.83252 113.237 5.19549 113.534 5.55845C113.832 5.92142 114.06 6.25808 114.224 6.56317C114.241 6.59999 114.304 6.73677 114.415 6.97874C114.527 7.22071 114.639 7.49425 114.756 7.79412C114.873 8.09393 114.984 8.38326 115.095 8.65155C115.207 8.91978 115.265 9.08816 115.287 9.1618C115.573 10.2139 115.833 11.3395 116.072 12.5337C116.306 13.7278 116.423 14.8745 116.423 15.9581C116.423 16.0476 116.412 16.2054 116.396 16.4421C116.38 16.6788 116.353 16.9208 116.327 17.1785C116.301 17.4363 116.28 17.6625 116.258 17.8624C116.237 18.0623 116.231 18.1675 116.231 18.1833C116.216 18.5568 116.157 18.9355 116.067 19.3195C115.977 19.7035 115.934 20.0823 115.934 20.4557L116.014 20.6451C116.014 20.7188 115.988 20.7504 115.934 20.7504C115.844 21.1238 115.722 21.5288 115.568 21.9655C115.414 22.4021 115.249 22.844 115.069 23.2911C114.888 23.7382 114.697 24.1696 114.49 24.5904C114.283 25.0112 114.092 25.39 113.911 25.7266C113.874 25.7792 113.826 25.8634 113.763 25.9791C113.699 26.0948 113.635 26.2053 113.571 26.3158C113.507 26.4263 113.449 26.521 113.396 26.6104C113.343 26.6998 113.306 26.7524 113.29 26.7735C113.253 26.8103 113.126 26.9523 112.913 27.1995C112.7 27.4468 112.462 27.7203 112.212 28.0149C111.962 28.3095 111.713 28.5882 111.468 28.846C111.225 29.1038 111.07 29.2721 110.996 29.3405C110.98 29.3773 110.906 29.4615 110.779 29.593C110.651 29.7245 110.513 29.8718 110.359 30.0191L109.929 30.4451C109.796 30.5767 109.706 30.6556 109.674 30.6714C109.53 30.7608 109.393 30.8239 109.255 30.8607C109.116 30.8975 108.979 30.9397 108.835 30.9922C108.729 31.0291 108.633 31.0922 108.554 31.1816C108.474 31.271 108.363 31.3131 108.214 31.3131H108.161C108.161 31.3131 108.124 31.3026 108.107 31.2868L107.916 31.1816C107.752 31.1816 107.635 31.1974 107.566 31.2342C107.497 31.2711 107.434 31.3184 107.375 31.3815C107.317 31.4446 107.258 31.5078 107.183 31.5709C107.11 31.634 107.003 31.6813 106.86 31.7181H106.754C106.701 31.7181 106.637 31.7024 106.562 31.6655L106.456 31.613V31.1027C106.223 31.0501 106.085 30.9659 106.037 30.8502C105.989 30.7345 105.925 30.5767 105.835 30.382L105.617 29.956V29.877C105.724 29.5194 105.856 29.1406 106.011 28.7408C106.164 28.341 106.382 27.9939 106.674 27.7098C106.69 27.694 106.754 27.6414 106.865 27.5625C106.976 27.4836 107.046 27.431 107.083 27.4152C107.157 27.3416 107.343 27.1311 107.651 26.7735C107.959 26.4157 108.288 26.0265 108.65 25.5951C109.01 25.1638 109.345 24.7745 109.647 24.4168C109.95 24.0591 110.136 23.8434 110.189 23.775C110.205 23.6856 110.263 23.5488 110.364 23.3595C110.465 23.1701 110.577 22.9755 110.704 22.7703C110.831 22.5651 110.948 22.3758 111.054 22.1969C111.16 22.0181 111.235 21.8866 111.272 21.7971C111.288 21.7445 111.32 21.6709 111.368 21.5815C111.416 21.492 111.458 21.3921 111.501 21.2869C111.543 21.1817 111.586 21.087 111.623 21.0081C111.66 20.9292 111.676 20.8766 111.676 20.8608C111.692 20.845 111.697 20.7924 111.692 20.7135C111.686 20.6346 111.676 20.582 111.676 20.5663C111.692 20.5294 111.729 20.4926 111.782 20.4452C111.835 20.3979 111.872 20.3716 111.888 20.3506C111.978 20.0297 112.058 19.6719 112.133 19.2827C112.207 18.8935 112.265 18.4884 112.324 18.0781C112.382 17.6678 112.425 17.2627 112.456 16.8629C112.488 16.4632 112.51 16.0896 112.51 15.753C112.51 15.2375 112.499 14.7115 112.483 14.1854C112.467 13.6594 112.403 13.1386 112.292 12.6179C112.276 12.6021 112.255 12.5547 112.239 12.4863C112.223 12.418 112.202 12.3601 112.185 12.3232C112.185 12.3075 112.169 12.2707 112.133 12.2181C112.095 12.1655 112.079 12.1286 112.079 12.1128V11.7131C112.079 11.7131 112.063 11.6605 112.037 11.6078C112.011 11.5552 111.989 11.5184 111.968 11.5026C111.968 11.4869 111.931 11.3659 111.861 11.1397C111.793 10.9135 111.708 10.6768 111.618 10.419C111.527 10.1613 111.4 9.80879 111.24 9.3617C111.203 9.23545 111.15 9.05658 111.076 8.82511C111.002 8.5937 110.959 8.4569 110.943 8.42532C110.906 8.37271 110.837 8.26755 110.725 8.11496C110.614 7.96244 110.502 7.80461 110.375 7.63105C110.247 7.45743 110.125 7.29436 110.009 7.13655C109.892 6.97874 109.817 6.85775 109.78 6.78937C109.764 6.75255 109.716 6.68416 109.647 6.58948C109.579 6.49479 109.52 6.4264 109.483 6.38958C109.408 6.31594 109.297 6.20021 109.143 6.0424C108.989 5.88459 108.83 5.72152 108.655 5.55845C108.479 5.39537 108.331 5.24808 108.198 5.10606C108.065 4.96403 107.97 4.8746 107.916 4.83778C107.826 4.74835 107.662 4.62736 107.418 4.47482C107.173 4.32227 106.929 4.15393 106.674 3.96456C106.419 3.77519 106.196 3.58056 106 3.3754C105.803 3.17025 105.703 2.98613 105.703 2.82833C105.703 2.7915 105.718 2.72312 105.745 2.61265C105.771 2.50218 105.814 2.39698 105.867 2.29177C105.92 2.18656 105.978 2.08136 106.042 1.98141C106.106 1.88146 106.175 1.8236 106.244 1.80782C106.26 1.80782 106.35 1.8236 106.515 1.86042C106.679 1.89724 106.775 1.90251 106.812 1.88672C106.828 1.88672 106.919 1.83938 107.067 1.73943C107.216 1.63949 107.306 1.58163 107.322 1.56584C107.216 1.38699 107.178 1.27126 107.216 1.21866C107.253 1.16606 107.322 1.14501 107.418 1.16606C107.513 1.1871 107.619 1.2134 107.731 1.26074C107.842 1.30809 107.911 1.34491 107.949 1.38173C107.964 1.36595 108.001 1.33965 108.055 1.31335C108.107 1.28704 108.145 1.27126 108.161 1.27126C108.235 1.14501 108.293 1.09241 108.352 1.10819C108.41 1.12397 108.458 1.17132 108.5 1.2397C108.543 1.30809 108.596 1.38699 108.65 1.4659C108.702 1.5448 108.766 1.58688 108.84 1.58688L108.814 1.57637Z" fill="#36D0B8" fill-opacity="0.48"/>
<path d="M-2.81445 42.7641C6.2971 42.8587 15.3821 41.6436 24.4724 41.1754C33.4565 40.7125 42.4566 40.5442 51.4513 40.4126C69.924 40.1391 88.4022 40.0918 106.875 40.0918C109.609 40.0918 109.615 35.8835 106.875 35.8835C88.3964 35.8835 69.924 35.9308 51.4513 36.2044C42.4566 36.3359 33.4619 36.5043 24.4724 36.9671C15.3821 37.4353 6.2971 38.6504 -2.81445 38.5557C-5.54899 38.5242 -5.54899 42.7325 -2.81445 42.7641Z" fill="#36D0B8" fill-opacity="0.48"/>
</svg>
