<svg width="234" height="481" viewBox="0 0 234 481" fill="none" xmlns="http://www.w3.org/2000/svg">
<path d="M78.2489 40.0791C78.2489 61.6733 60.9566 79.1582 39.6508 79.1582C18.3449 79.1582 1.05261 61.6733 1.05261 40.0791C1.05261 18.4849 18.3449 1 39.6508 1C60.9566 1 78.2489 18.4849 78.2489 40.0791Z" stroke="#D87023" stroke-opacity="0.12" stroke-width="2"/>
<path d="M156.124 40.0791C156.124 61.6733 138.832 79.1582 117.526 79.1582C96.2204 79.1582 78.9281 61.6733 78.9281 40.0791C78.9281 18.4849 96.2204 1 117.526 1C138.832 1 156.124 18.4849 156.124 40.0791Z" stroke="#D87023" stroke-opacity="0.12" stroke-width="2"/>
<path d="M234 40.0791C234 61.6733 216.708 79.1582 195.402 79.1582C174.096 79.1582 156.804 61.6733 156.804 40.0791C156.804 18.4849 174.096 1 195.402 1C216.708 1 234 18.4849 234 40.0791Z" stroke="#D87023" stroke-opacity="0.12" stroke-width="2"/>
<path d="M78.2489 120.079C78.2489 141.673 60.9566 159.158 39.6508 159.158C18.3449 159.158 1.05261 141.673 1.05261 120.079C1.05261 98.4849 18.3449 81 39.6508 81C60.9566 81 78.2489 98.4849 78.2489 120.079Z" stroke="#D87023" stroke-opacity="0.12" stroke-width="2"/>
<path d="M156.124 120.079C156.124 141.673 138.832 159.158 117.526 159.158C96.2204 159.158 78.9281 141.673 78.9281 120.079C78.9281 98.4849 96.2204 81 117.526 81C138.832 81 156.124 98.4849 156.124 120.079Z" stroke="#D87023" stroke-opacity="0.12" stroke-width="2"/>
<path d="M234 120.079C234 141.673 216.708 159.158 195.402 159.158C174.096 159.158 156.804 141.673 156.804 120.079C156.804 98.4849 174.096 81 195.402 81C216.708 81 234 98.4849 234 120.079Z" stroke="#D87023" stroke-opacity="0.12" stroke-width="2"/>
<path d="M78.2489 200.079C78.2489 221.673 60.9566 239.158 39.6508 239.158C18.3449 239.158 1.05261 221.673 1.05261 200.079C1.05261 178.485 18.3449 161 39.6508 161C60.9566 161 78.2489 178.485 78.2489 200.079Z" stroke="#D87023" stroke-opacity="0.12" stroke-width="2"/>
<path d="M156.124 200.079C156.124 221.673 138.832 239.158 117.526 239.158C96.2204 239.158 78.9281 221.673 78.9281 200.079C78.9281 178.485 96.2204 161 117.526 161C138.832 161 156.124 178.485 156.124 200.079Z" stroke="#D87023" stroke-opacity="0.12" stroke-width="2"/>
<path d="M234 200.079C234 221.673 216.708 239.158 195.402 239.158C174.096 239.158 156.804 221.673 156.804 200.079C156.804 178.485 174.096 161 195.402 161C216.708 161 234 178.485 234 200.079Z" stroke="#D87023" stroke-opacity="0.12" stroke-width="2"/>
<path d="M78.2489 280.079C78.2489 301.673 60.9566 319.158 39.6508 319.158C18.3449 319.158 1.05261 301.673 1.05261 280.079C1.05261 258.485 18.3449 241 39.6508 241C60.9566 241 78.2489 258.485 78.2489 280.079Z" stroke="#D87023" stroke-opacity="0.12" stroke-width="2"/>
<path d="M156.124 280.079C156.124 301.673 138.832 319.158 117.526 319.158C96.2204 319.158 78.9281 301.673 78.9281 280.079C78.9281 258.485 96.2204 241 117.526 241C138.832 241 156.124 258.485 156.124 280.079Z" stroke="#D87023" stroke-opacity="0.12" stroke-width="2"/>
<path d="M234 280.079C234 301.673 216.708 319.158 195.402 319.158C174.096 319.158 156.804 301.673 156.804 280.079C156.804 258.485 174.096 241 195.402 241C216.708 241 234 258.485 234 280.079Z" stroke="#D87023" stroke-opacity="0.12" stroke-width="2"/>
<path d="M78.2489 360.079C78.2489 381.673 60.9566 399.158 39.6508 399.158C18.3449 399.158 1.05261 381.673 1.05261 360.079C1.05261 338.485 18.3449 321 39.6508 321C60.9566 321 78.2489 338.485 78.2489 360.079Z" stroke="#D87023" stroke-opacity="0.12" stroke-width="2"/>
<path d="M156.124 360.079C156.124 381.673 138.832 399.158 117.526 399.158C96.2204 399.158 78.9281 381.673 78.9281 360.079C78.9281 338.485 96.2204 321 117.526 321C138.832 321 156.124 338.485 156.124 360.079Z" stroke="#D87023" stroke-opacity="0.12" stroke-width="2"/>
<path d="M234 360.079C234 381.673 216.708 399.158 195.402 399.158C174.096 399.158 156.804 381.673 156.804 360.079C156.804 338.485 174.096 321 195.402 321C216.708 321 234 338.485 234 360.079Z" stroke="#D87023" stroke-opacity="0.12" stroke-width="2"/>
<path d="M78.2489 440.079C78.2489 461.673 60.9566 479.158 39.6508 479.158C18.3449 479.158 1.05261 461.673 1.05261 440.079C1.05261 418.485 18.3449 401 39.6508 401C60.9566 401 78.2489 418.485 78.2489 440.079Z" stroke="#D87023" stroke-opacity="0.12" stroke-width="2"/>
<path d="M156.124 440.079C156.124 461.673 138.832 479.158 117.526 479.158C96.2204 479.158 78.9281 461.673 78.9281 440.079C78.9281 418.485 96.2204 401 117.526 401C138.832 401 156.124 418.485 156.124 440.079Z" stroke="#D87023" stroke-opacity="0.12" stroke-width="2"/>
<path d="M234 440.079C234 461.673 216.708 479.158 195.402 479.158C174.096 479.158 156.804 461.673 156.804 440.079C156.804 418.485 174.096 401 195.402 401C216.708 401 234 418.485 234 440.079Z" stroke="#D87023" stroke-opacity="0.12" stroke-width="2"/>
</svg>
