<svg width="343" height="657" viewBox="0 0 343 657" fill="none" xmlns="http://www.w3.org/2000/svg">
<circle cx="12.6263" cy="-4.1126" r="25.8552" stroke="#1A1A1A" stroke-width="1.1552"/>
<circle cx="65.4913" cy="-4.1126" r="25.8552" stroke="#1A1A1A" stroke-width="1.1552"/>
<circle cx="118.356" cy="-4.1126" r="25.8552" stroke="#1A1A1A" stroke-width="1.1552"/>
<circle cx="171.223" cy="-4.1126" r="25.8552" stroke="#1A1A1A" stroke-width="1.1552"/>
<circle cx="224.088" cy="-4.1126" r="25.8552" stroke="#1A1A1A" stroke-width="1.1552"/>
<circle cx="276.953" cy="-4.1126" r="25.8552" stroke="#1A1A1A" stroke-width="1.1552"/>
<circle cx="329.82" cy="-4.1126" r="25.8552" stroke="#1A1A1A" stroke-width="1.1552"/>
<circle cx="12.6263" cy="-4.1126" r="25.8552" stroke="#1A1A1A" stroke-width="1.1552"/>
<circle cx="65.4913" cy="-4.1126" r="25.8552" stroke="#1A1A1A" stroke-width="1.1552"/>
<circle cx="118.356" cy="-4.1126" r="25.8552" stroke="#1A1A1A" stroke-width="1.1552"/>
<circle cx="171.223" cy="-4.1126" r="25.8552" stroke="#1A1A1A" stroke-width="1.1552"/>
<circle cx="224.088" cy="-4.1126" r="25.8552" stroke="#1A1A1A" stroke-width="1.1552"/>
<circle cx="276.953" cy="-4.1126" r="25.8552" stroke="#1A1A1A" stroke-width="1.1552"/>
<circle cx="329.82" cy="-4.1126" r="25.8552" stroke="#1A1A1A" stroke-width="1.1552"/>
<circle cx="12.6263" cy="48.7524" r="25.8552" stroke="#1A1A1A" stroke-width="1.1552"/>
<circle cx="65.4913" cy="48.752" r="25.8552" stroke="#1A1A1A" stroke-width="1.1552"/>
<circle cx="118.356" cy="48.752" r="25.8552" stroke="#1A1A1A" stroke-width="1.1552"/>
<circle cx="171.223" cy="48.7524" r="25.8552" stroke="#1A1A1A" stroke-width="1.1552"/>
<circle cx="224.088" cy="48.7516" r="25.8552" stroke="#1A1A1A" stroke-width="1.1552"/>
<circle cx="276.953" cy="48.752" r="25.8552" stroke="#1A1A1A" stroke-width="1.1552"/>
<circle cx="329.82" cy="48.7516" r="25.8552" stroke="#1A1A1A" stroke-width="1.1552"/>
<circle cx="12.6263" cy="101.618" r="25.8552" stroke="#1A1A1A" stroke-width="1.1552"/>
<circle cx="65.4913" cy="101.618" r="25.8552" stroke="#1A1A1A" stroke-width="1.1552"/>
<circle cx="118.356" cy="101.618" r="25.8552" stroke="#1A1A1A" stroke-width="1.1552"/>
<circle cx="171.223" cy="101.618" r="25.8552" stroke="#1A1A1A" stroke-width="1.1552"/>
<circle cx="224.088" cy="101.618" r="25.8552" stroke="#1A1A1A" stroke-width="1.1552"/>
<circle cx="276.953" cy="101.618" r="25.8552" stroke="#1A1A1A" stroke-width="1.1552"/>
<circle cx="329.82" cy="101.618" r="25.8552" stroke="#1A1A1A" stroke-width="1.1552"/>
<circle cx="12.6263" cy="154.485" r="25.8552" stroke="#1A1A1A" stroke-width="1.1552"/>
<circle cx="65.4913" cy="154.485" r="25.8552" stroke="#1A1A1A" stroke-width="1.1552"/>
<circle cx="118.356" cy="154.485" r="25.8552" stroke="#1A1A1A" stroke-width="1.1552"/>
<circle cx="171.223" cy="154.485" r="25.8552" stroke="#1A1A1A" stroke-width="1.1552"/>
<circle cx="224.088" cy="154.484" r="25.8552" stroke="#1A1A1A" stroke-width="1.1552"/>
<circle cx="276.953" cy="154.484" r="25.8552" stroke="#1A1A1A" stroke-width="1.1552"/>
<circle cx="329.82" cy="154.484" r="25.8552" stroke="#1A1A1A" stroke-width="1.1552"/>
<circle cx="12.6263" cy="207.35" r="25.8552" stroke="#1A1A1A" stroke-width="1.1552"/>
<circle cx="65.4913" cy="207.35" r="25.8552" stroke="#1A1A1A" stroke-width="1.1552"/>
<circle cx="118.356" cy="207.35" r="25.8552" stroke="#1A1A1A" stroke-width="1.1552"/>
<circle cx="171.223" cy="207.35" r="25.8552" stroke="#1A1A1A" stroke-width="1.1552"/>
<circle cx="224.088" cy="207.35" r="25.8552" stroke="#1A1A1A" stroke-width="1.1552"/>
<circle cx="276.953" cy="207.349" r="25.8552" stroke="#1A1A1A" stroke-width="1.1552"/>
<circle cx="329.82" cy="207.35" r="25.8552" stroke="#1A1A1A" stroke-width="1.1552"/>
<circle cx="12.6263" cy="260.216" r="25.8552" stroke="#1A1A1A" stroke-width="1.1552"/>
<circle cx="65.4913" cy="260.215" r="25.8552" stroke="#1A1A1A" stroke-width="1.1552"/>
<circle cx="118.356" cy="260.215" r="25.8552" stroke="#1A1A1A" stroke-width="1.1552"/>
<circle cx="171.223" cy="260.216" r="25.8552" stroke="#1A1A1A" stroke-width="1.1552"/>
<circle cx="224.088" cy="260.215" r="25.8552" stroke="#1A1A1A" stroke-width="1.1552"/>
<circle cx="276.953" cy="260.215" r="25.8552" stroke="#1A1A1A" stroke-width="1.1552"/>
<circle cx="329.82" cy="260.215" r="25.8552" stroke="#1A1A1A" stroke-width="1.1552"/>
<circle cx="12.6263" cy="313.081" r="25.8552" stroke="#1A1A1A" stroke-width="1.1552"/>
<circle cx="65.4913" cy="313.081" r="25.8552" stroke="#1A1A1A" stroke-width="1.1552"/>
<circle cx="118.356" cy="313.081" r="25.8552" stroke="#1A1A1A" stroke-width="1.1552"/>
<circle cx="171.223" cy="313.081" r="25.8552" stroke="#1A1A1A" stroke-width="1.1552"/>
<circle cx="224.088" cy="313.081" r="25.8552" stroke="#1A1A1A" stroke-width="1.1552"/>
<circle cx="276.953" cy="313.081" r="25.8552" stroke="#1A1A1A" stroke-width="1.1552"/>
<circle cx="329.82" cy="313.081" r="25.8552" stroke="#1A1A1A" stroke-width="1.1552"/>
<circle cx="12.6263" cy="365.947" r="25.8552" stroke="#1A1A1A" stroke-width="1.1552"/>
<circle cx="65.4913" cy="365.947" r="25.8552" stroke="#1A1A1A" stroke-width="1.1552"/>
<circle cx="118.356" cy="365.947" r="25.8552" stroke="#1A1A1A" stroke-width="1.1552"/>
<circle cx="171.223" cy="365.947" r="25.8552" stroke="#1A1A1A" stroke-width="1.1552"/>
<circle cx="224.088" cy="365.947" r="25.8552" stroke="#1A1A1A" stroke-width="1.1552"/>
<circle cx="276.953" cy="365.946" r="25.8552" stroke="#1A1A1A" stroke-width="1.1552"/>
<circle cx="329.82" cy="365.947" r="25.8552" stroke="#1A1A1A" stroke-width="1.1552"/>
<circle cx="12.6263" cy="418.812" r="25.8552" stroke="#1A1A1A" stroke-width="1.1552"/>
<circle cx="65.4913" cy="418.812" r="25.8552" stroke="#1A1A1A" stroke-width="1.1552"/>
<circle cx="118.356" cy="418.812" r="25.8552" stroke="#1A1A1A" stroke-width="1.1552"/>
<circle cx="171.223" cy="418.812" r="25.8552" stroke="#1A1A1A" stroke-width="1.1552"/>
<circle cx="224.088" cy="418.812" r="25.8552" stroke="#1A1A1A" stroke-width="1.1552"/>
<circle cx="276.953" cy="418.812" r="25.8552" stroke="#1A1A1A" stroke-width="1.1552"/>
<circle cx="329.82" cy="418.812" r="25.8552" stroke="#1A1A1A" stroke-width="1.1552"/>
<circle cx="12.6263" cy="471.678" r="25.8552" stroke="#1A1A1A" stroke-width="1.1552"/>
<circle cx="65.4913" cy="471.678" r="25.8552" stroke="#1A1A1A" stroke-width="1.1552"/>
<circle cx="118.356" cy="471.678" r="25.8552" stroke="#1A1A1A" stroke-width="1.1552"/>
<circle cx="171.223" cy="471.678" r="25.8552" stroke="#1A1A1A" stroke-width="1.1552"/>
<circle cx="224.088" cy="471.677" r="25.8552" stroke="#1A1A1A" stroke-width="1.1552"/>
<circle cx="276.953" cy="471.678" r="25.8552" stroke="#1A1A1A" stroke-width="1.1552"/>
<circle cx="329.82" cy="471.677" r="25.8552" stroke="#1A1A1A" stroke-width="1.1552"/>
<circle cx="12.6263" cy="524.543" r="25.8552" stroke="#1A1A1A" stroke-width="1.1552"/>
<circle cx="65.4913" cy="524.544" r="25.8552" stroke="#1A1A1A" stroke-width="1.1552"/>
<circle cx="118.356" cy="524.544" r="25.8552" stroke="#1A1A1A" stroke-width="1.1552"/>
<circle cx="171.223" cy="524.543" r="25.8552" stroke="#1A1A1A" stroke-width="1.1552"/>
<circle cx="224.088" cy="524.544" r="25.8552" stroke="#1A1A1A" stroke-width="1.1552"/>
<circle cx="276.953" cy="524.543" r="25.8552" stroke="#1A1A1A" stroke-width="1.1552"/>
<circle cx="329.82" cy="524.544" r="25.8552" stroke="#1A1A1A" stroke-width="1.1552"/>
<circle cx="12.6263" cy="577.409" r="25.8552" stroke="#1A1A1A" stroke-width="1.1552"/>
<circle cx="65.4913" cy="577.409" r="25.8552" stroke="#1A1A1A" stroke-width="1.1552"/>
<circle cx="118.356" cy="577.409" r="25.8552" stroke="#1A1A1A" stroke-width="1.1552"/>
<circle cx="171.223" cy="577.409" r="25.8552" stroke="#1A1A1A" stroke-width="1.1552"/>
<circle cx="224.088" cy="577.409" r="25.8552" stroke="#1A1A1A" stroke-width="1.1552"/>
<circle cx="276.953" cy="577.409" r="25.8552" stroke="#1A1A1A" stroke-width="1.1552"/>
<circle cx="329.82" cy="577.409" r="25.8552" stroke="#1A1A1A" stroke-width="1.1552"/>
<circle cx="12.6263" cy="630.274" r="25.8552" stroke="#1A1A1A" stroke-width="1.1552"/>
<circle cx="65.4913" cy="630.274" r="25.8552" stroke="#1A1A1A" stroke-width="1.1552"/>
<circle cx="118.356" cy="630.274" r="25.8552" stroke="#1A1A1A" stroke-width="1.1552"/>
<circle cx="171.223" cy="630.274" r="25.8552" stroke="#1A1A1A" stroke-width="1.1552"/>
<circle cx="224.088" cy="630.274" r="25.8552" stroke="#1A1A1A" stroke-width="1.1552"/>
<circle cx="276.953" cy="630.274" r="25.8552" stroke="#1A1A1A" stroke-width="1.1552"/>
<circle cx="329.82" cy="630.274" r="25.8552" stroke="#1A1A1A" stroke-width="1.1552"/>
</svg>
